<svg width="280" height="280" viewBox="0 0 280 280" fill="none" xmlns="http://www.w3.org/2000/svg">
<path fill-rule="evenodd" clip-rule="evenodd" d="M200.88 241.101L153.208 212.867L185.42 187.071C186.043 186.649 186.571 186.102 186.972 185.464C187.373 184.827 187.637 184.113 187.748 183.369C187.86 182.624 187.815 181.864 187.618 181.137C187.421 180.411 187.076 179.733 186.604 179.146C186.131 178.56 185.543 178.078 184.875 177.731C184.207 177.383 183.475 177.179 182.724 177.129C181.973 177.079 181.22 177.186 180.513 177.442C179.805 177.699 179.158 178.099 178.613 178.618L143.202 207.022L99.8265 181.239C99.2109 180.848 98.5232 180.586 97.8044 180.467C97.0855 180.348 96.35 180.374 95.6415 180.545C94.9331 180.715 94.266 181.026 93.68 181.46C93.0939 181.893 92.6008 182.44 92.2298 183.067C91.8589 183.695 91.6176 184.391 91.5203 185.113C91.4231 185.836 91.4718 186.571 91.6637 187.274C91.8555 187.977 92.1865 188.635 92.6371 189.208C93.0877 189.781 93.6487 190.258 94.2869 190.61L134.115 214.207L86.9972 252.019C86.3675 252.438 85.832 252.983 85.4248 253.621C85.0177 254.259 84.7477 254.974 84.6323 255.722C84.5168 256.47 84.5584 257.234 84.7543 257.964C84.9502 258.695 85.2962 259.377 85.7701 259.967C86.2441 260.557 86.8356 261.041 87.5071 261.389C88.1785 261.737 88.9151 261.942 89.6698 261.989C90.4245 262.037 91.1809 261.926 91.8907 261.665C92.6004 261.404 93.248 260.998 93.792 260.472L144.132 220.088L195.328 250.412C195.943 250.813 196.633 251.085 197.356 251.212C198.078 251.339 198.819 251.318 199.533 251.151C200.248 250.985 200.921 250.675 201.513 250.241C202.105 249.807 202.603 249.258 202.978 248.627C203.352 247.996 203.595 247.295 203.692 246.568C203.789 245.84 203.738 245.1 203.542 244.393C203.347 243.685 203.01 243.025 202.552 242.451C202.095 241.877 201.526 241.402 200.88 241.053V241.101Z" fill="#F1854F"/>
<path fill-rule="evenodd" clip-rule="evenodd" d="M186.385 179.282C185.453 178.153 184.111 177.44 182.654 177.3C181.197 177.159 179.743 177.603 178.613 178.533L147.897 203.181L167.908 201.068L185.42 187.071C185.998 186.626 186.482 186.07 186.844 185.436C187.205 184.802 187.438 184.103 187.528 183.378C187.618 182.654 187.563 181.919 187.367 181.216C187.171 180.513 186.837 179.855 186.385 179.282Z" fill="#074785"/>
<path fill-rule="evenodd" clip-rule="evenodd" d="M99.8265 181.239C99.2109 180.848 98.5232 180.586 97.8044 180.467C97.0855 180.348 96.35 180.374 95.6415 180.545C94.9331 180.715 94.266 181.026 93.68 181.46C93.0939 181.893 92.6008 182.44 92.2298 183.067C91.8589 183.695 91.6176 184.391 91.5203 185.113C91.4231 185.836 91.4718 186.571 91.6637 187.274C91.8555 187.977 92.1865 188.635 92.6371 189.208C93.0877 189.781 93.6487 190.258 94.2869 190.61L120.38 206.068L138.484 204.16L99.8265 181.239Z" fill="#074785"/>
<path fill-rule="evenodd" clip-rule="evenodd" d="M227.311 118.526C228.808 132.788 230.268 146.712 231.765 160.938C226.104 161.53 220.589 162.146 215.049 162.605C214.639 162.605 213.842 161.506 213.71 160.853C213.082 155.793 212.599 150.721 212.068 145.661C211.26 137.981 210.499 130.3 209.654 122.632C209.461 120.953 209.872 120.289 211.622 120.144C216.799 119.697 222.001 119.081 227.311 118.526Z" fill="#074785"/>
<path fill-rule="evenodd" clip-rule="evenodd" d="M87.5765 115.712C62.6903 118.332 40.7609 100.809 38.2143 76.3547C35.7161 52.3708 53.7471 30.6695 78.3799 28.0851C103.013 25.5008 125.183 43.0478 127.682 67.2732C130.18 91.4985 112.233 113.115 87.5765 115.712ZM83.7506 46.55C83.549 44.2192 82.6587 42.0011 81.1931 40.1783C79.7275 38.3554 77.7529 37.0102 75.5208 36.314C73.2886 35.6177 70.8999 35.6019 68.6587 36.2685C66.4176 36.9352 64.4254 38.2541 62.9358 40.0574C61.4462 41.8607 60.5267 44.0668 60.2942 46.3947C60.0618 48.7226 60.5269 51.0671 61.6305 53.1297C62.734 55.1922 64.4261 56.8795 66.4911 57.9767C68.5561 59.0738 70.9008 59.5312 73.2265 59.2906C74.754 59.1468 76.2383 58.703 77.5943 57.9846C78.9502 57.2662 80.1513 56.2873 81.1288 55.104C82.1063 53.9206 82.841 52.556 83.2909 51.0882C83.7408 49.6204 83.897 48.0783 83.7506 46.55ZM67.8558 73.5529C67.6606 71.2118 66.7728 68.9819 65.3056 67.1478C63.8384 65.3136 61.8584 63.9585 59.6183 63.2552C57.3781 62.5519 54.9793 62.5324 52.728 63.1991C50.4767 63.8658 48.4749 65.1885 46.9781 66.9985C45.4813 68.8085 44.5573 71.0236 44.3241 73.3613C44.0908 75.699 44.5589 78.0532 45.6685 80.1235C46.7781 82.1939 48.479 83.8865 50.5542 84.9855C52.6293 86.0844 54.9846 86.5398 57.3196 86.2936C60.403 85.9968 63.2433 84.4893 65.2181 82.1013C67.193 79.7132 68.1415 76.6393 67.8558 73.5529ZM94.5524 86.2453C94.7431 88.5764 95.6226 90.7982 97.079 92.6277C98.5354 94.4571 100.503 95.8117 102.731 96.5188C104.959 97.226 107.347 97.2539 109.591 96.5988C111.835 95.9438 113.834 94.6355 115.332 92.8405C116.831 91.0454 117.762 88.8448 118.007 86.5187C118.252 84.1926 117.8 81.8461 116.708 79.778C115.616 77.7099 113.934 76.0136 111.875 74.9051C109.817 73.7966 107.475 73.3259 105.149 73.5529C103.62 73.6895 102.133 74.1263 100.773 74.8382C99.4129 75.5501 98.2063 76.5232 97.2222 77.7019C96.2381 78.8806 95.4958 80.2419 95.0377 81.7078C94.5796 83.1737 94.4147 84.7155 94.5524 86.2453ZM65.5868 98.9859C65.7835 101.32 66.6702 103.543 68.1339 105.371C69.5976 107.2 71.5721 108.551 73.8058 109.252C76.0395 109.953 78.4314 109.974 80.6766 109.31C82.9219 108.646 84.9189 107.329 86.4133 105.526C87.9076 103.723 88.8317 101.515 89.0678 99.1844C89.3039 96.8538 88.8413 94.5056 87.7389 92.439C86.6366 90.3723 84.9443 88.6808 82.8778 87.58C80.8113 86.4791 78.4641 86.0186 76.1351 86.2573C74.6022 86.3906 73.1108 86.8265 71.7473 87.5399C70.3837 88.2533 69.1749 89.2299 68.1907 90.4135C67.2065 91.597 66.4665 92.964 66.0133 94.4353C65.5602 95.9067 65.4029 97.4533 65.5506 98.9859H65.5868ZM101.89 42.6735C99.6371 42.9477 97.5147 43.8809 95.7889 45.3563C94.0631 46.8316 92.8105 48.7835 92.188 50.9677C91.5655 53.1519 91.6006 55.4713 92.2891 57.6356C92.9775 59.7999 94.2887 61.7129 96.0584 63.1352C97.8281 64.5575 99.9778 65.4259 102.238 65.6317C104.499 65.8374 106.77 65.3714 108.767 64.292C110.764 63.2126 112.399 61.5677 113.466 59.5632C114.534 57.5587 114.986 55.2837 114.768 53.023C114.607 51.495 114.146 50.014 113.41 48.6654C112.675 47.3167 111.68 46.127 110.483 45.165C109.286 44.2029 107.91 43.4874 106.436 43.0598C104.961 42.6322 103.416 42.5009 101.89 42.6735ZM87.2144 71.4637C87.0867 70.3581 86.5342 69.3455 85.6738 68.6401C84.8134 67.9347 83.7126 67.5917 82.6041 67.6838C82.0494 67.729 81.509 67.8831 81.0138 68.1372C80.5185 68.3914 80.0782 68.7407 79.7179 69.1651C79.3576 69.5896 79.0844 70.0809 78.9138 70.611C78.7433 71.1411 78.6787 71.6996 78.7239 72.2547C78.7691 72.8098 78.9231 73.3505 79.1771 73.846C79.4311 74.3415 79.7802 74.7821 80.2043 75.1427C80.6285 75.5032 81.1195 75.7766 81.6493 75.9472C82.1791 76.1179 82.7373 76.1825 83.292 76.1373C83.8582 76.0934 84.41 75.9369 84.9151 75.6772C85.4201 75.4174 85.8684 75.0594 86.2336 74.6243C86.5988 74.1891 86.8736 73.6855 87.0421 73.1428C87.2105 72.6001 87.2691 72.0293 87.2144 71.4637Z" fill="#DA8413"/>
<path fill-rule="evenodd" clip-rule="evenodd" d="M181.063 105.882C156.249 108.43 134.223 90.9309 131.749 66.6814C129.275 42.4319 147.282 20.7789 172.072 18.2428C196.861 15.7068 218.742 33.3263 221.204 57.4792C223.666 81.6321 205.684 103.358 181.063 105.882ZM153.835 39.0264C154.001 41.3622 154.858 43.5957 156.298 45.442C157.737 47.2882 159.694 48.6636 161.918 49.3926C164.142 50.1216 166.533 50.1712 168.785 49.5351C171.037 48.899 173.049 47.606 174.564 45.821C176.079 44.036 177.028 41.84 177.29 39.5131C177.552 37.1861 177.116 34.8337 176.037 32.7559C174.958 30.6781 173.284 28.9691 171.23 27.8468C169.176 26.7246 166.835 26.2399 164.504 26.4548C161.424 26.7072 158.57 28.1732 156.569 30.5306C154.568 32.888 153.585 35.9438 153.835 39.0264ZM161.366 63.6985C161.173 61.3644 160.289 59.1407 158.828 57.3108C157.367 55.4809 155.394 54.1275 153.162 53.4231C150.93 52.7186 148.538 52.6949 146.292 53.355C144.046 54.0151 142.048 55.3291 140.551 57.1297C139.054 58.9303 138.126 61.136 137.886 63.4659C137.646 65.7958 138.105 68.1444 139.203 70.2126C140.302 72.2809 141.991 73.9752 144.055 75.0797C146.119 76.1843 148.465 76.6491 150.794 76.415C152.323 76.2771 153.811 75.8384 155.171 75.1241C156.53 74.4099 157.736 73.4341 158.718 72.2527C159.7 71.0714 160.44 69.7076 160.894 68.2397C161.349 66.7718 161.509 65.2286 161.366 63.6985ZM182.511 86.6438C182.287 84.314 181.375 82.1036 179.891 80.2943C178.408 78.485 176.419 77.1588 174.179 76.4846C171.939 75.8104 169.549 75.8188 167.314 76.5086C165.079 77.1985 163.1 78.5386 161.628 80.3582C160.157 82.1779 159.261 84.3946 159.053 86.7259C158.846 89.0572 159.336 91.3976 160.463 93.4487C161.59 95.4999 163.301 97.169 165.379 98.2433C167.457 99.3176 169.808 99.7485 172.132 99.481C175.211 99.1495 178.034 97.6091 179.979 95.198C181.925 92.7868 182.836 89.7017 182.511 86.6196V86.6438ZM197.863 55.8247C199.391 55.6779 200.875 55.2313 202.231 54.5102C203.586 53.7891 204.787 52.8078 205.763 51.6223C206.739 50.4368 207.472 49.0704 207.921 47.6012C208.369 46.132 208.523 44.5889 208.375 43.0599C208.177 40.7158 207.285 38.484 205.813 36.6495C204.341 34.8151 202.356 33.4611 200.112 32.7606C197.867 32.06 195.465 32.0447 193.212 32.7165C190.959 33.3883 188.957 34.7168 187.462 36.5323C185.967 38.3478 185.046 40.568 184.818 42.9094C184.59 45.2508 185.064 47.6072 186.18 49.6776C187.296 51.7481 189.004 53.4387 191.085 54.5336C193.166 55.6285 195.526 56.078 197.863 55.8247ZM188.123 76.4633C188.313 78.8027 189.195 81.0324 190.657 82.8679C192.119 84.7034 194.095 86.0614 196.331 86.7686C198.568 87.4758 200.964 87.5002 203.215 86.8387C205.465 86.1771 207.468 84.8596 208.967 83.0543C210.466 81.2489 211.393 79.0376 211.631 76.7026C211.868 74.3676 211.405 72.0147 210.3 69.9442C209.196 67.8737 207.499 66.1796 205.428 65.0779C203.357 63.9762 201.005 63.517 198.672 63.7589C195.585 64.044 192.738 65.5408 190.752 67.9218C188.766 70.3028 187.803 73.374 188.075 76.4633H188.123ZM180.809 61.5489C180.717 60.6897 180.369 59.878 179.811 59.2186C179.253 58.5591 178.51 58.0821 177.678 57.8492C176.846 57.6163 175.964 57.6382 175.145 57.9119C174.326 58.1857 173.607 58.6988 173.082 59.3851C172.558 60.0714 172.25 60.8993 172.2 61.762C172.15 62.6248 172.36 63.4827 172.802 64.2251C173.244 64.9676 173.898 65.5605 174.68 65.9273C175.462 66.294 176.336 66.4179 177.189 66.2829C178.275 66.0985 179.25 65.5057 179.914 64.6257C180.578 63.7457 180.881 62.6451 180.761 61.5489H180.809Z" fill="#DA8413"/>
<path fill-rule="evenodd" clip-rule="evenodd" d="M78.3799 28.0851C53.8075 30.6695 35.7764 52.3708 38.2747 76.3909C40.7609 100.809 62.6903 118.332 87.5765 115.712C112.233 113.115 130.18 91.4381 127.682 67.2732C125.183 43.1082 103.061 25.4887 78.3799 28.0851ZM87.2748 71.4637C87.3277 72.0283 87.2679 72.5979 87.0987 73.1392C86.9295 73.6804 86.6543 74.1826 86.2893 74.6165C85.9242 75.0503 85.4766 75.4071 84.9723 75.6661C84.4681 75.9252 83.9174 76.0812 83.3524 76.1252C82.232 76.2165 81.1214 75.8587 80.2647 75.1306C79.408 74.4025 78.8755 73.3636 78.7843 72.2426C78.693 71.1216 79.0506 70.0103 79.7783 69.153C80.5059 68.2958 81.5441 67.763 82.6644 67.6717C83.7648 67.5962 84.8519 67.9483 85.6995 68.6546C86.547 69.3609 87.0896 70.3671 87.2144 71.4637L87.2748 71.4637ZM70.8368 36.2488C73.1083 36.061 75.3846 36.5485 77.3803 37.6501C79.3759 38.7517 81.0022 40.4183 82.055 42.441C83.1078 44.4637 83.5404 46.7524 83.2985 49.0201C83.0566 51.2878 82.1509 53.4336 80.6951 55.1883C79.2392 56.943 77.2981 58.2286 75.1149 58.8838C72.9318 59.539 70.604 59.5347 68.4233 58.8714C66.2427 58.2081 64.3063 56.9153 62.857 55.1552C61.4077 53.3951 60.51 51.246 60.2765 48.9774C60.1319 47.4473 60.2907 45.9037 60.7436 44.4351C61.1965 42.9665 61.9347 41.6019 62.9157 40.4193C63.8968 39.2368 65.1016 38.2597 66.4608 37.544C67.8201 36.8284 69.3072 36.3882 70.8368 36.2488ZM57.3196 86.2452C55.0459 86.4387 52.7659 85.9553 50.766 84.8559C48.7661 83.7565 47.1356 82.0901 46.0795 80.0662C45.0233 78.0423 44.5885 75.7512 44.8298 73.4808C45.0712 71.2103 45.9778 69.0619 47.4358 67.3056C48.8938 65.5492 50.8381 64.2633 53.0243 63.6094C55.2105 62.9555 57.5412 62.9628 59.7233 63.6304C61.9054 64.298 63.8416 65.5961 65.2885 67.3615C66.7355 69.127 67.6287 71.281 67.8558 73.5529C68.112 76.628 67.1515 79.6809 65.181 82.0546C63.2106 84.4283 60.3876 85.9331 57.3196 86.2452ZM78.4524 109.299C76.1795 109.49 73.9011 109.004 71.9031 107.904C69.9051 106.803 68.2766 105.136 67.2221 103.113C66.1677 101.089 65.7342 98.7988 65.9762 96.5295C66.2183 94.2601 67.125 92.113 68.5825 90.3575C70.04 88.6021 71.9833 87.3167 74.1684 86.6628C76.3536 86.0088 78.6831 86.0154 80.8645 86.6817C83.0459 87.3481 84.9819 88.6445 86.4295 90.4082C87.877 92.1718 88.7715 94.3241 89.0007 96.5948C89.1451 98.1226 88.9866 99.664 88.5342 101.13C88.0817 102.597 87.3443 103.959 86.3642 105.14C85.3841 106.32 84.1806 107.295 82.8229 108.009C81.4651 108.723 79.9799 109.161 78.4524 109.299ZM101.89 42.6735C104.154 42.4972 106.42 42.9932 108.403 44.0995C110.387 45.2059 112 46.8732 113.041 48.8928C114.081 50.9123 114.503 53.1942 114.254 55.4526C114.004 57.7111 113.094 59.8456 111.638 61.5888C110.181 63.3321 108.243 64.6065 106.066 65.2524C103.889 65.8984 101.569 65.8872 99.3987 65.2202C97.2279 64.5532 95.3022 63.2601 93.8626 61.5029C92.423 59.7456 91.5336 57.6024 91.3058 55.3416C91.1649 53.8136 91.3273 52.2727 91.7837 50.8076C92.2401 49.3426 92.9814 47.9823 93.9651 46.8049C94.9488 45.6276 96.1554 44.6565 97.5155 43.9475C98.8756 43.2384 100.362 42.8055 101.89 42.6735ZM107.418 96.6189C105.146 96.8025 102.87 96.3106 100.877 95.2052C98.8829 94.0997 97.2598 92.4297 96.2108 90.4048C95.1618 88.3799 94.7338 86.0901 94.9803 83.8227C95.2268 81.5553 96.1369 79.4112 97.5964 77.6593C99.056 75.9075 101 74.6258 103.185 73.9751C105.369 73.3245 107.697 73.3338 109.877 74.0018C112.056 74.6699 113.99 75.967 115.435 77.7304C116.881 79.4939 117.774 81.6452 118.002 83.9145C118.142 85.4442 117.979 86.9865 117.522 88.453C117.065 89.9196 116.324 91.2818 115.342 92.4617C114.359 93.6415 113.153 94.616 111.793 95.3293C110.434 96.0426 108.947 96.4809 107.418 96.6189Z" fill="#FFA4AC"/>
<path fill-rule="evenodd" clip-rule="evenodd" d="M221.204 57.4792C218.742 33.3263 196.656 15.7189 172.072 18.2428C147.487 20.7668 129.275 42.3957 131.749 66.6814C134.223 90.9671 156.249 108.43 181.063 105.882C205.684 103.358 223.666 81.6683 221.204 57.4792ZM180.761 61.5489C180.861 62.6647 180.525 63.7758 179.822 64.6481C179.12 65.5204 178.106 66.0858 176.995 66.2252C175.884 66.3645 174.763 66.0669 173.867 65.3951C172.971 64.7233 172.37 63.7297 172.192 62.6237C172.092 61.5079 172.429 60.3968 173.131 59.5245C173.834 58.6522 174.847 58.0869 175.958 57.9475C177.069 57.8082 178.191 58.1058 179.087 58.7776C179.983 59.4494 180.583 60.4429 180.761 61.5489ZM164.504 26.4548C166.781 26.2835 169.058 26.7892 171.049 27.9085C173.039 29.0278 174.655 30.7107 175.693 32.7458C176.731 34.781 177.145 37.0777 176.883 39.3474C176.62 41.6171 175.694 43.7587 174.219 45.5031C172.744 47.2475 170.787 48.5169 168.594 49.1521C166.4 49.7872 164.068 49.7596 161.89 49.0727C159.712 48.3859 157.786 47.0705 156.353 45.2917C154.92 43.5129 154.044 41.35 153.835 39.0747C153.705 37.5445 153.877 36.0036 154.343 34.5403C154.809 33.0771 155.559 31.7203 156.551 30.5478C157.542 29.3753 158.755 28.4101 160.12 27.7078C161.484 27.0054 162.975 26.5796 164.504 26.4548ZM150.794 76.415C148.521 76.6079 146.243 76.1246 144.244 75.0259C142.245 73.9272 140.615 72.2621 139.558 70.2395C138.502 68.217 138.066 65.9273 138.306 63.6578C138.546 61.3883 139.45 59.2403 140.906 57.4835C142.361 55.7266 144.303 54.4393 146.488 53.783C148.672 53.1268 151.001 53.1309 153.183 53.7949C155.365 54.4588 157.303 55.7531 158.752 57.5151C160.202 59.2771 161.098 61.4283 161.33 63.6985C161.473 65.2258 161.314 66.7663 160.862 68.232C160.41 69.6978 159.673 71.06 158.695 72.2409C157.716 73.4218 156.515 74.3982 155.159 75.1145C153.804 75.8307 152.32 76.2726 150.794 76.415ZM172.096 99.4569C169.825 99.6778 167.54 99.2226 165.528 98.1484C163.515 97.0741 161.865 95.4287 160.783 93.4189C159.702 91.4091 159.239 89.1244 159.451 86.8518C159.664 84.5793 160.542 82.4202 161.977 80.6457C163.412 78.8713 165.338 77.5606 167.515 76.8782C169.692 76.1959 172.022 76.1724 174.212 76.8107C176.402 77.449 178.355 78.7205 179.825 80.4657C181.295 82.2109 182.217 84.3518 182.475 86.6196C182.639 88.1422 182.502 89.6823 182.071 91.1517C181.639 92.6211 180.923 93.9911 179.962 95.1833C179.002 96.3755 177.816 97.3666 176.472 98.0999C175.129 98.8332 173.654 99.2943 172.132 99.4569H172.096ZM195.28 32.8674C198.356 32.4956 201.453 33.3601 203.892 35.271C206.331 37.1819 207.913 39.9832 208.291 43.0599C208.509 46.1139 207.536 49.1338 205.576 51.485C203.616 53.8362 200.821 55.3358 197.779 55.6688C194.738 56.0018 191.685 55.1422 189.263 53.2706C186.842 51.3991 185.239 48.6612 184.792 45.6322C184.639 44.1014 184.791 42.5555 185.238 41.0836C185.685 39.6117 186.419 38.2429 187.397 37.0562C188.375 35.8696 189.579 34.8884 190.938 34.1695C192.297 33.4506 193.785 33.008 195.316 32.8674H195.28ZM200.989 86.837C198.718 87.0221 196.443 86.5325 194.45 85.4297C192.456 84.3269 190.832 82.6598 189.781 80.6374C188.729 78.6149 188.298 76.3271 188.541 74.0605C188.783 71.7939 189.689 69.6493 191.144 67.8956C192.6 66.1418 194.54 64.8567 196.722 64.2014C198.904 63.5462 201.231 63.5498 203.411 64.2119C205.591 64.8739 207.527 66.165 208.977 67.9233C210.427 69.6817 211.326 71.829 211.561 74.0964C211.843 77.1878 210.889 80.265 208.907 82.6533C206.925 85.0416 204.078 86.5461 200.989 86.837Z" fill="#FFA4AC"/>
<path fill-rule="evenodd" clip-rule="evenodd" d="M65.9247 168.534L51.442 170.128C50.754 163.317 50.0782 156.542 49.3782 149.598L63.8609 148.016C64.5489 154.791 65.2127 161.494 65.9247 168.534Z" fill="#074785"/>
<path fill-rule="evenodd" clip-rule="evenodd" d="M216.835 179.463C214.357 155.665 211.859 131.866 209.341 108.067C208.689 101.92 204.658 98.6236 198.587 99.2637C155.018 103.812 111.453 108.381 67.892 112.97C60.9403 113.707 57.8627 117.535 58.5989 124.479C61.0127 147.956 63.4747 171.428 65.9851 194.897C66.7213 201.877 70.4506 204.872 77.4748 204.135L207.82 190.453C214.325 189.752 217.511 185.924 216.835 179.463Z" fill="#A089E4"/>
<path fill-rule="evenodd" clip-rule="evenodd" d="M83.7506 46.55C84.0327 48.8727 83.6176 51.2268 82.5581 53.3126C81.4985 55.3984 79.8426 57.1215 77.8011 58.2624C75.7596 59.4033 73.4249 59.9104 71.0944 59.7191C68.7639 59.5278 66.543 58.6469 64.7146 57.1883C62.8862 55.7298 61.5329 53.7598 60.8272 51.5291C60.1215 49.2984 60.0953 46.9081 60.7519 44.6624C61.4085 42.4168 62.7181 40.4175 64.5141 38.9192C66.3101 37.4208 68.5111 36.4912 70.8368 36.2488C72.3609 36.0757 73.9041 36.205 75.3782 36.6292C76.8523 37.0534 78.2284 37.7641 79.4277 38.7208C80.6271 39.6776 81.6262 40.8615 82.368 42.2049C83.1098 43.5483 83.5796 45.0248 83.7506 46.55Z" fill="#074785"/>
<path fill-rule="evenodd" clip-rule="evenodd" d="M67.8558 73.5529C68.1455 75.8838 67.7348 78.2483 66.676 80.3446C65.6172 82.441 63.9584 84.1743 61.9111 85.3234C59.8638 86.4726 57.5208 86.9855 55.181 86.7967C52.8411 86.6079 50.6105 85.726 48.7737 84.2635C46.9368 82.801 45.5769 80.8242 44.8675 78.5851C44.1581 76.3461 44.1313 73.9464 44.7905 71.692C45.4497 69.4377 46.765 67.4309 48.5688 65.9276C50.3725 64.4244 52.5828 63.4928 54.9178 63.2517C57.9985 62.902 61.0919 63.7906 63.518 65.7223C65.9441 67.6539 67.5044 70.4705 67.8558 73.5529Z" fill="#074785"/>
<path fill-rule="evenodd" clip-rule="evenodd" d="M94.5524 86.2453C94.2836 83.9215 94.7119 81.5702 95.7829 79.4907C96.8538 77.4113 98.5189 75.6978 100.566 74.5683C102.614 73.4388 104.95 72.9445 107.279 73.1482C109.608 73.3519 111.824 74.2445 113.645 75.7123C115.465 77.1801 116.808 79.1568 117.502 81.3906C118.196 83.6245 118.21 86.0144 117.542 88.2563C116.875 90.4982 115.555 92.4906 113.752 93.9798C111.949 95.469 109.744 96.3877 107.418 96.6189C105.891 96.7913 104.345 96.6591 102.87 96.2298C101.394 95.8006 100.019 95.0828 98.8221 94.1181C97.6256 93.1534 96.6322 91.9609 95.8993 90.6095C95.1664 89.2582 94.7086 87.7748 94.5524 86.2453Z" fill="#074785"/>
<path fill-rule="evenodd" clip-rule="evenodd" d="M65.5506 98.9859C65.2679 96.6597 65.6838 94.302 66.7453 92.2133C67.8068 90.1246 69.4658 88.3994 71.5109 87.2578C73.5561 86.1161 75.8946 85.6096 78.2285 85.8029C80.5623 85.9962 82.7858 86.8805 84.6155 88.3431C86.4452 89.8057 87.7981 91.7804 88.502 94.0153C89.2058 96.2503 89.2286 98.6443 88.5675 100.892C87.9064 103.14 86.5913 105.14 84.7898 106.638C82.9883 108.135 80.7821 109.061 78.4524 109.299C75.3762 109.635 72.2923 108.739 69.8746 106.806C67.457 104.874 65.9024 102.062 65.5506 98.9859Z" fill="#074785"/>
<path fill-rule="evenodd" clip-rule="evenodd" d="M101.89 42.6735C104.154 42.4972 106.42 42.9932 108.403 44.0995C110.387 45.2059 112 46.8732 113.041 48.8928C114.081 50.9123 114.503 53.1942 114.254 55.4526C114.004 57.7111 113.094 59.8456 111.638 61.5888C110.181 63.3321 108.243 64.6065 106.066 65.2524C103.889 65.8984 101.569 65.8872 99.3987 65.2202C97.2279 64.5532 95.3022 63.2601 93.8626 61.5029C92.423 59.7456 91.5336 57.6024 91.3058 55.3416C91.1649 53.8136 91.3273 52.2727 91.7837 50.8076C92.2401 49.3426 92.9814 47.9823 93.9651 46.8049C94.9488 45.6276 96.1554 44.6565 97.5155 43.9475C98.8756 43.2384 100.362 42.8055 101.89 42.6735Z" fill="#074785"/>
<path fill-rule="evenodd" clip-rule="evenodd" d="M88.5662 71.3309C88.634 72.0732 88.5537 72.8217 88.3299 73.5328C88.1062 74.2439 87.7435 74.9034 87.2629 75.473C86.7823 76.0427 86.1934 76.5111 85.5304 76.8511C84.8674 77.1911 84.1434 77.3959 83.4006 77.4536C82.6692 77.5131 81.9332 77.4278 81.2347 77.2027C80.5362 76.9775 79.8888 76.6169 79.3296 76.1415C78.7704 75.666 78.3102 75.0849 77.9754 74.4315C77.6406 73.7781 77.4376 73.0651 77.3782 72.3332C77.3188 71.6013 77.404 70.8649 77.629 70.1659C77.854 69.467 78.2144 68.8192 78.6896 68.2597C79.1647 67.7001 79.7454 67.2396 80.3984 66.9046C81.0515 66.5696 81.764 66.3665 82.4955 66.3071C83.9626 66.1852 85.4192 66.6426 86.5536 67.5815C87.6881 68.5203 88.4104 69.866 88.5662 71.3309Z" fill="#FD6085"/>
<path fill-rule="evenodd" clip-rule="evenodd" d="M153.835 39.0264C153.581 36.7002 154.025 34.351 155.11 32.278C156.195 30.2051 157.873 28.5023 159.928 27.3865C161.984 26.2707 164.325 25.7924 166.653 26.0125C168.981 26.2326 171.191 27.1412 173.002 28.6226C174.812 30.1039 176.141 32.0909 176.819 34.3306C177.497 36.5702 177.493 38.961 176.808 41.1984C176.123 43.4359 174.788 45.4188 172.973 46.8944C171.158 48.3701 168.945 49.2717 166.616 49.4846C165.09 49.6398 163.549 49.4922 162.08 49.0503C160.611 48.6084 159.244 47.8808 158.057 46.9093C156.87 45.9378 155.886 44.7414 155.161 43.3887C154.437 42.036 153.986 40.5536 153.835 39.0264Z" fill="#074785"/>
<path fill-rule="evenodd" clip-rule="evenodd" d="M161.366 63.6985C161.647 66.0245 161.229 68.3814 160.165 70.4687C159.102 72.5561 157.442 74.2795 155.396 75.4193C153.351 76.5591 151.012 77.0638 148.679 76.8689C146.346 76.674 144.123 75.7885 142.295 74.3252C140.466 72.8618 139.115 70.8869 138.412 68.652C137.709 66.4172 137.687 64.0236 138.349 61.7763C139.011 59.529 140.326 57.5297 142.128 56.0332C143.929 54.5366 146.135 53.6107 148.465 53.3732C149.99 53.2003 151.534 53.3306 153.009 53.7564C154.484 54.1822 155.86 54.8953 157.059 55.8546C158.257 56.8139 159.255 58.0007 159.994 59.3468C160.733 60.6928 161.2 62.1717 161.366 63.6985Z" fill="#074785"/>
<path fill-rule="evenodd" clip-rule="evenodd" d="M182.511 86.6196C182.817 88.9468 182.421 91.3123 181.375 93.4131C180.329 95.5138 178.68 97.2542 176.639 98.4113C174.598 99.5683 172.258 100.089 169.92 99.9073C167.581 99.7254 165.35 98.849 163.512 97.3904C161.674 95.9317 160.314 93.9572 159.604 91.7199C158.895 89.4826 158.87 87.0843 159.531 84.8324C160.193 82.5805 161.511 80.5775 163.317 79.08C165.124 77.5825 167.336 76.6588 169.67 76.4271C172.72 76.0933 175.779 76.9762 178.183 78.8842C180.587 80.7923 182.142 83.5717 182.511 86.6196Z" fill="#074785"/>
<path fill-rule="evenodd" clip-rule="evenodd" d="M197.863 55.8247C195.602 56.013 193.335 55.53 191.347 54.436C189.358 53.3421 187.737 51.6858 186.684 49.6743C185.632 47.6628 185.195 45.3854 185.43 43.1271C185.664 40.8688 186.559 38.7297 188.002 36.9775C189.445 35.2252 191.372 33.9377 193.542 33.2758C195.713 32.6139 198.03 32.6071 200.205 33.2563C202.379 33.9054 204.314 35.1817 205.767 36.9254C207.22 38.6692 208.128 40.803 208.375 43.0599C208.528 44.5897 208.377 46.1347 207.931 47.6059C207.485 49.0771 206.752 50.4454 205.775 51.6319C204.797 52.8184 203.595 53.7998 202.237 54.5194C200.88 55.239 199.393 55.6826 197.863 55.8247Z" fill="#074785"/>
<path fill-rule="evenodd" clip-rule="evenodd" d="M188.075 76.4633C187.802 74.1354 188.227 71.7789 189.297 69.6936C190.366 67.6083 192.032 65.8886 194.081 64.7534C196.131 63.6182 198.471 63.1188 200.805 63.3188C203.139 63.5188 205.361 64.4091 207.187 65.8765C209.014 67.3438 210.363 69.3218 211.063 71.5587C211.762 73.7955 211.781 76.1902 211.116 78.4377C210.452 80.6853 209.134 82.6841 207.33 84.1798C205.527 85.6756 203.319 86.6005 200.989 86.837C199.459 87.0129 197.909 86.8834 196.429 86.456C194.95 86.0286 193.569 85.3118 192.368 84.347C191.167 83.3823 190.169 82.1887 189.432 80.8355C188.695 79.4822 188.234 77.9962 188.075 76.4633Z" fill="#074785"/>
<path fill-rule="evenodd" clip-rule="evenodd" d="M182.173 61.3678C182.35 62.5003 182.186 63.6599 181.703 64.6992C181.22 65.7386 180.44 66.611 179.46 67.2056C178.481 67.8002 177.347 68.0903 176.203 68.039C175.058 67.9877 173.955 67.5974 173.033 66.9176C172.11 66.2377 171.411 65.299 171.022 64.2206C170.634 63.1422 170.575 61.9727 170.852 60.8605C171.129 59.7483 171.731 58.7436 172.579 57.9738C173.428 57.2041 174.486 56.7041 175.62 56.5372C177.127 56.3248 178.656 56.7116 179.881 57.6146C181.107 58.5176 181.929 59.865 182.173 61.3678Z" fill="#FD6085"/>
<path fill-rule="evenodd" clip-rule="evenodd" d="M200.41 111.4C199.999 107.391 198.828 106.473 194.773 106.884H194.544L72.8765 119.685C69.0265 120.083 68.0489 121.327 68.3989 125.156C70.6839 147.038 72.9771 168.913 75.2782 190.779C75.7248 195.078 76.8351 195.972 81.192 195.513L202.86 182.736C206.734 182.325 207.687 181.106 207.325 177.253C205.04 155.298 202.735 133.347 200.41 111.4Z" fill="#F9D555"/>
<path fill-rule="evenodd" clip-rule="evenodd" d="M250.037 99.6139C249.144 100.218 248.456 100.652 247.817 101.123L224.029 118.876C225.235 129.829 227.649 150.275 228.241 161.312L257.918 174.693C255.263 149.453 252.668 124.66 250.037 99.6139Z" fill="#6C2696"/>
<path fill-rule="evenodd" clip-rule="evenodd" d="M250.037 99.6139C249.06 99.155 247.273 100.423 246.622 100.894L224.029 118.876C225.235 129.829 227.649 150.275 228.241 161.312C228.241 161.312 251.727 179.97 257.918 174.693C274.561 160.503 272.872 110.229 250.037 99.6139Z" fill="#A089E4"/>
<path fill-rule="evenodd" clip-rule="evenodd" d="M50.6816 149.296C50.6816 149.296 43.4402 143.693 41.3764 145.19C32.9281 151.337 35.1247 171.626 44.5868 175.864C46.9161 176.903 52.842 169.899 52.842 169.899C52.2224 163.015 51.5023 156.148 50.6816 149.296Z" fill="#A089E4"/>
<path d="M44.8402 63.0464C47.4049 55.1147 52.1678 48.0749 58.5747 42.7459C60.2885 41.333 57.8385 38.9056 56.1609 40.3306C49.3142 46.0607 44.2369 53.6207 41.5212 62.1286C40.8574 64.2541 44.1885 65.1598 44.8402 63.0464Z" fill="white"/>
<path d="M138.882 52.5158C141.45 44.5891 146.212 37.5539 152.616 32.2273C154.33 30.8023 151.88 28.387 150.203 29.8121C143.365 35.5528 138.293 43.115 135.575 51.6221C134.911 53.7476 138.242 54.6533 138.894 52.5399L138.882 52.5158Z" fill="white"/>
<path fill-rule="evenodd" clip-rule="evenodd" d="M257.423 174.995C257.687 174.847 257.917 174.645 258.099 174.403C269.275 159.537 263.711 110.845 251.304 100.218C251.304 100.242 247.02 131.955 257.423 174.995Z" fill="#074785"/>
<path d="M113.38 127.728C108.299 128.247 105.571 132.389 105.837 137.292C105.97 139.804 109.88 139.708 109.747 137.292C109.59 134.551 110.459 132.353 113.368 131.725C116.506 131.037 118.352 133.162 118.196 136.133C118.111 138.657 122.009 138.548 122.106 136.133C122.23 134.97 122.087 133.794 121.688 132.695C121.288 131.596 120.643 130.603 119.801 129.791C118.959 128.98 117.942 128.373 116.829 128.015C115.717 127.657 114.537 127.559 113.38 127.728Z" fill="#074785"/>
<path d="M153.727 123.139C148.658 123.803 146.051 127.969 146.485 132.921C146.69 135.421 150.589 135.264 150.384 132.752C150.154 130.01 150.951 127.788 153.787 127.076C156.901 126.303 158.82 128.38 158.796 131.351C158.796 133.875 162.67 133.694 162.694 131.182C162.765 130.025 162.574 128.866 162.135 127.794C161.695 126.721 161.019 125.762 160.156 124.988C159.293 124.214 158.267 123.646 157.153 123.326C156.04 123.005 154.868 122.942 153.727 123.139Z" fill="#074785"/>
<path d="M142.937 141.785C142.978 141.269 142.817 140.758 142.488 140.359C142.159 139.961 141.688 139.705 141.175 139.647C140.66 139.6 140.147 139.759 139.749 140.09C139.351 140.42 139.1 140.895 139.051 141.41C139.051 142.944 139.196 145.613 137.542 146.422C135.213 147.63 133.644 144.768 133.209 142.956C132.642 140.541 128.792 141.169 129.371 143.632C130.325 147.702 133.294 151.144 137.82 150.383C141.875 149.695 143.07 145.347 142.937 141.785Z" fill="#074785"/>
<path d="M223.208 208.809C222.339 207.976 220.613 196.25 219.044 196.346C217.475 196.443 216.087 208.06 215.363 208.833C213.879 210.367 203.077 211.454 203.173 212.939C203.27 214.425 213.866 215.137 215.363 216.562C216.196 217.371 217.958 229.122 219.527 229.025C221.096 228.928 222.447 217.347 223.22 216.55C224.644 215.065 235.53 213.917 235.434 212.432C235.337 210.947 224.656 210.234 223.208 208.809Z" fill="#FD6085"/>
<path d="M32.035 115.241C31.1781 114.408 29.4402 102.681 27.8712 102.778C26.3022 102.875 24.9264 114.504 24.1902 115.265C22.7178 116.799 11.916 117.886 12.0005 119.443C12.085 121.001 22.6936 121.629 24.1902 123.066C25.035 123.875 26.785 135.626 28.366 135.529C29.9471 135.433 31.3109 123.803 32.0471 123.066C33.4712 121.593 44.3575 120.446 44.273 118.948C44.1885 117.451 33.4833 116.642 32.035 115.241Z" fill="#FD6085"/>
<path d="M187.954 132.232C187.58 131.858 186.82 126.738 186.132 126.774C185.444 126.81 184.841 131.906 184.515 132.232C183.875 132.909 179.144 133.44 179.18 134.032C179.216 134.623 183.863 134.998 184.527 135.626C184.889 135.988 185.661 141.133 186.349 141.084C187.037 141.036 187.628 135.976 187.954 135.626C188.582 134.974 193.349 134.418 193.313 133.826C193.277 133.235 188.582 132.836 187.954 132.232Z" fill="#074785"/>
<path d="M89.1455 178.908C88.7593 178.545 88.011 173.413 87.3231 173.461C86.6351 173.51 86.0317 178.594 85.7058 178.92C85.0541 179.596 80.3351 180.067 80.3713 180.719C80.4075 181.371 85.0541 181.685 85.7058 182.313C86.08 182.676 86.8403 187.82 87.5282 187.772C88.2162 187.724 88.8075 182.664 89.1455 182.313C89.7731 181.661 94.5403 181.166 94.492 180.514C94.4438 179.862 89.7731 179.524 89.1455 178.908Z" fill="#074785"/>
<path d="M84.6558 137.872C84.2817 137.498 83.5213 132.365 82.8334 132.413C82.1455 132.462 81.542 137.558 81.2282 137.872C80.5765 138.548 75.8455 139.019 75.8817 139.671C75.9179 140.324 80.5644 140.638 81.2282 141.266C81.5903 141.628 82.3627 146.772 83.0506 146.724C83.7386 146.676 84.33 141.616 84.6679 141.266C85.2834 140.613 90.0507 140.118 90.0145 139.466C89.9782 138.814 85.2955 138.476 84.6558 137.872Z" fill="white"/>
<path d="M196.885 163.788C196.511 163.426 195.751 158.293 195.063 158.33C194.375 158.366 193.772 163.462 193.446 163.8C192.806 164.464 188.075 165.008 188.111 165.6C188.147 166.191 192.794 166.554 193.458 167.194C193.82 167.544 194.592 172.688 195.28 172.652C195.968 172.616 196.56 167.532 196.885 167.194C197.513 166.541 202.28 165.986 202.232 165.382C202.184 164.778 197.513 164.404 196.885 163.788Z" fill="white"/>
<path d="M91.2455 123.139C90.8038 123.139 90.3801 123.314 90.0678 123.627C89.7554 123.939 89.58 124.363 89.58 124.805C89.58 125.247 89.7554 125.671 90.0678 125.984C90.3801 126.296 90.8038 126.472 91.2455 126.472C91.6872 126.472 92.1108 126.296 92.4232 125.984C92.7355 125.671 92.911 125.247 92.911 124.805C92.911 124.363 92.7355 123.939 92.4232 123.627C92.1108 123.314 91.6872 123.139 91.2455 123.139Z" fill="white"/>
<path d="M128.515 124.805C128.073 124.805 127.649 124.981 127.337 125.293C127.024 125.606 126.849 126.03 126.849 126.472C126.849 126.914 127.024 127.338 127.337 127.65C127.649 127.963 128.073 128.138 128.515 128.138C128.956 128.138 129.38 127.963 129.692 127.65C130.005 127.338 130.18 126.914 130.18 126.472C130.18 126.03 130.005 125.606 129.692 125.293C129.38 124.981 128.956 124.805 128.515 124.805Z" fill="white"/>
<path d="M87.4317 157.4C86.99 157.4 86.5663 157.575 86.254 157.888C85.9416 158.2 85.7662 158.624 85.7662 159.066C85.7662 159.508 85.9416 159.932 86.254 160.245C86.5663 160.557 86.99 160.733 87.4317 160.733C87.8734 160.733 88.297 160.557 88.6094 160.245C88.9217 159.932 89.0972 159.508 89.0972 159.066C89.0972 158.624 88.9217 158.2 88.6094 157.888C88.297 157.575 87.8734 157.4 87.4317 157.4Z" fill="white"/>
<path d="M166.351 178.956C165.909 178.956 165.485 179.132 165.173 179.444C164.861 179.757 164.685 180.181 164.685 180.623C164.685 181.065 164.861 181.488 165.173 181.801C165.485 182.114 165.909 182.289 166.351 182.289C166.793 182.289 167.216 182.114 167.529 181.801C167.841 181.488 168.016 181.065 168.016 180.623C168.016 180.181 167.841 179.757 167.529 179.444C167.216 179.132 166.793 178.956 166.351 178.956Z" fill="white"/>
<path d="M196.463 146.35C196.021 146.35 195.598 146.525 195.285 146.838C194.973 147.15 194.797 147.574 194.797 148.016C194.797 148.458 194.973 148.882 195.285 149.195C195.598 149.507 196.021 149.683 196.463 149.683C196.905 149.683 197.328 149.507 197.641 149.195C197.953 148.882 198.128 148.458 198.128 148.016C198.128 147.574 197.953 147.15 197.641 146.838C197.328 146.525 196.905 146.35 196.463 146.35Z" fill="white"/>
<path d="M113.947 176.348C113.947 176.734 113.947 177.205 113.947 177.748C113.938 178.287 113.861 178.823 113.718 179.343C113.592 179.825 113.371 180.277 113.066 180.671C112.92 180.856 112.738 181.01 112.53 181.122C112.323 181.234 112.094 181.303 111.859 181.323C111.548 181.379 111.227 181.353 110.928 181.247C110.63 181.141 110.364 180.959 110.158 180.719C109.721 180.189 109.393 179.577 109.192 178.92C108.957 178.207 108.783 177.476 108.673 176.734C108.564 175.985 108.48 175.381 108.408 174.947C107.048 175.325 105.696 175.675 104.352 175.997C104.352 176.444 104.352 177 104.352 177.676C104.295 178.343 104.17 179.003 103.978 179.644C103.791 180.253 103.501 180.825 103.121 181.335C102.952 181.568 102.736 181.763 102.486 181.907C102.237 182.051 101.96 182.14 101.673 182.168C101.466 182.199 101.254 182.179 101.057 182.109C100.859 182.04 100.681 181.923 100.539 181.77C100.224 181.444 99.9776 181.058 99.8145 180.635C99.6232 180.181 99.4855 179.707 99.4041 179.222C99.3317 178.727 99.2714 178.316 99.2352 178.014C99.1126 176.92 99.0803 175.817 99.1386 174.717C99.1386 173.63 99.2834 172.543 99.4041 171.445C99.4645 170.877 99.549 170.237 99.6576 169.428C99.7662 168.619 99.9231 167.846 100.116 167.012C100.31 166.169 100.556 165.338 100.852 164.525C101.123 163.739 101.479 162.986 101.914 162.279C102.304 161.634 102.807 161.065 103.399 160.6C103.975 160.143 104.671 159.862 105.402 159.791C106.072 159.709 106.752 159.809 107.37 160.081C107.965 160.374 108.494 160.785 108.927 161.288C109.401 161.814 109.807 162.398 110.133 163.027C110.47 163.683 110.772 164.357 111.039 165.044C111.288 165.736 111.517 166.413 111.727 167.073C111.92 167.737 112.101 168.281 112.258 168.836C112.644 170.044 112.994 171.251 113.308 172.58C113.596 173.822 113.81 175.08 113.947 176.348ZM107.587 169.899C107.587 169.657 107.502 169.283 107.418 168.691C107.333 168.16 107.212 167.636 107.056 167.121C106.928 166.634 106.724 166.169 106.452 165.744C106.375 165.575 106.249 165.432 106.089 165.335C105.93 165.238 105.745 165.192 105.559 165.201C105.366 165.201 105.197 165.382 105.052 165.66C104.89 165.99 104.768 166.339 104.69 166.698C104.606 167.109 104.533 167.556 104.473 168.051C104.413 168.546 104.377 169.029 104.352 169.476C104.328 169.923 104.352 170.333 104.352 170.684V171.469C105.559 171.251 106.621 170.974 107.72 170.66L107.587 169.899Z" fill="white"/>
<path d="M127.525 164.283C127.57 164.685 127.57 165.09 127.525 165.491C127.486 165.905 127.389 166.312 127.235 166.698C127.079 167.054 126.853 167.374 126.571 167.64C126.267 167.913 125.881 168.079 125.473 168.111C124.951 168.208 124.411 168.141 123.928 167.918C123.587 167.719 123.311 167.425 123.132 167.073C122.95 166.693 122.835 166.284 122.794 165.865C122.733 165.443 122.685 165.056 122.625 164.658C122.582 164.345 122.484 164.042 122.335 163.764C122.259 163.647 122.149 163.556 122.019 163.504C121.889 163.452 121.747 163.442 121.611 163.474C121.422 163.491 121.239 163.547 121.073 163.639C120.907 163.73 120.761 163.855 120.646 164.005C120.36 164.365 120.143 164.775 120.006 165.213C119.829 165.718 119.704 166.24 119.632 166.771C119.546 167.339 119.49 167.912 119.463 168.486C119.463 169.041 119.463 169.573 119.463 170.068C119.463 170.563 119.463 170.974 119.535 171.275C119.608 171.577 119.644 172.169 119.74 172.725C119.823 173.268 119.973 173.8 120.187 174.307C120.379 174.762 120.663 175.173 121.02 175.514C121.209 175.68 121.433 175.802 121.675 175.871C121.917 175.94 122.171 175.954 122.42 175.913C122.799 175.868 123.172 175.779 123.53 175.647C123.892 175.502 124.242 175.357 124.604 175.188C124.966 175.019 125.316 174.874 125.678 174.741C126.043 174.601 126.424 174.507 126.813 174.464C127.033 174.43 127.258 174.451 127.469 174.525C127.679 174.598 127.868 174.723 128.02 174.886C128.349 175.207 128.55 175.636 128.587 176.094C128.646 176.717 128.506 177.342 128.189 177.881C127.849 178.466 127.417 178.993 126.909 179.439C126.383 179.925 125.79 180.331 125.147 180.647C124.592 180.93 123.992 181.113 123.373 181.19C122.138 181.361 120.88 181.168 119.752 180.635C118.672 180.107 117.729 179.334 117.001 178.376C116.275 177.409 115.717 176.327 115.347 175.176C114.964 173.998 114.701 172.784 114.563 171.553C114.489 170.657 114.489 169.756 114.563 168.86C114.612 167.854 114.737 166.853 114.937 165.865C115.138 164.86 115.425 163.874 115.794 162.919C116.147 161.994 116.622 161.121 117.206 160.322C117.754 159.576 118.423 158.927 119.185 158.402C119.959 157.891 120.845 157.576 121.768 157.484C122.601 157.368 123.449 157.53 124.182 157.943C124.876 158.345 125.467 158.903 125.908 159.573C126.383 160.278 126.745 161.052 126.982 161.868C127.23 162.656 127.412 163.464 127.525 164.283Z" fill="white"/>
<path d="M140.704 157.75C140.745 158.25 140.594 158.746 140.282 159.139C139.94 159.598 139.534 160.005 139.075 160.346C138.587 160.702 138.066 161.01 137.518 161.264C137.08 161.48 136.629 161.665 136.166 161.82C136.166 163.329 136.166 164.827 136.287 166.312C136.408 167.797 136.468 169.295 136.637 170.792C136.721 171.577 136.818 172.362 136.939 173.135C137.059 173.908 137.168 174.669 137.252 175.454C137.284 175.836 137.284 176.219 137.252 176.601C137.231 177.012 137.154 177.419 137.023 177.809C136.908 178.182 136.71 178.525 136.444 178.811C136.173 179.094 135.808 179.27 135.418 179.306C134.992 179.36 134.561 179.253 134.211 179.004C133.874 178.751 133.598 178.425 133.402 178.05C133.196 177.669 133.038 177.263 132.932 176.843C132.832 176.446 132.76 176.042 132.715 175.635C132.546 174.427 132.401 173.316 132.244 172.145C132.087 170.974 131.966 169.802 131.846 168.619C131.737 167.64 131.64 166.662 131.544 165.72C131.447 164.778 131.351 163.8 131.242 162.81C130.972 162.884 130.698 162.945 130.421 162.991L129.577 163.112C129.271 163.132 128.965 163.132 128.659 163.112C128.281 163.107 127.904 163.058 127.537 162.967C127.195 162.888 126.871 162.745 126.583 162.544C126.448 162.452 126.336 162.33 126.254 162.188C126.173 162.045 126.124 161.887 126.113 161.723C126.082 161.436 126.113 161.145 126.202 160.871C126.292 160.596 126.438 160.343 126.632 160.129C127.093 159.602 127.64 159.157 128.249 158.813C128.969 158.394 129.724 158.038 130.506 157.75C131.351 157.436 132.184 157.17 133.004 156.953C133.837 156.735 134.597 156.554 135.297 156.421C135.997 156.289 136.504 156.204 136.927 156.156L138.134 156.071C138.54 156.054 138.946 156.095 139.34 156.192C139.709 156.278 140.05 156.457 140.33 156.711C140.567 157.006 140.699 157.372 140.704 157.75Z" fill="white"/>
<path d="M149.237 156.953C149.286 157.297 149.24 157.647 149.104 157.967C148.967 158.273 148.77 158.548 148.525 158.776C148.271 159.014 147.987 159.217 147.68 159.38C147.389 159.542 147.082 159.672 146.763 159.767C146.956 161.965 147.101 164.078 147.197 166.131C147.294 168.184 147.318 170.297 147.27 172.483H147.451C147.755 172.447 148.063 172.447 148.368 172.483C148.668 172.514 148.96 172.605 149.225 172.749C149.477 172.879 149.696 173.065 149.865 173.292C150.05 173.541 150.16 173.839 150.178 174.15C150.233 174.574 150.129 175.004 149.889 175.357C149.622 175.746 149.276 176.075 148.875 176.323C148.415 176.619 147.926 176.866 147.415 177.06C146.879 177.276 146.331 177.457 145.773 177.604C145.253 177.753 144.725 177.874 144.192 177.966C143.697 178.062 143.287 178.123 142.985 178.159H142.128C141.801 178.184 141.471 178.16 141.151 178.087C140.855 178.03 140.575 177.911 140.33 177.736C140.214 177.647 140.119 177.534 140.05 177.405C139.981 177.276 139.941 177.134 139.932 176.988C139.883 176.612 139.928 176.23 140.065 175.877C140.19 175.535 140.379 175.22 140.62 174.947C140.863 174.667 141.148 174.427 141.465 174.234C141.782 174.051 142.118 173.901 142.466 173.787C142.466 172.7 142.466 171.626 142.466 170.563C142.466 169.5 142.466 168.413 142.358 167.326C142.249 166.24 142.201 165.129 142.128 164.054C142.056 162.979 141.971 161.892 141.887 160.805L141.513 160.89H141.199C140.906 160.914 140.611 160.914 140.318 160.89C140.008 160.864 139.703 160.795 139.413 160.684C139.145 160.57 138.897 160.416 138.677 160.226C138.463 160.018 138.334 159.738 138.315 159.441C138.276 159.123 138.315 158.801 138.429 158.502C138.542 158.204 138.727 157.937 138.966 157.726C139.51 157.212 140.145 156.802 140.837 156.518C141.572 156.204 142.336 155.962 143.118 155.793C143.743 155.648 144.376 155.535 145.013 155.455C145.29 155.455 145.652 155.455 146.099 155.395C146.553 155.388 147.006 155.428 147.451 155.516C147.876 155.586 148.285 155.733 148.658 155.95C148.839 156.046 148.989 156.191 149.092 156.368C149.194 156.545 149.245 156.748 149.237 156.953Z" fill="white"/>
<path d="M158.518 176.855C157.428 177.001 156.32 176.807 155.344 176.299C154.383 175.78 153.557 175.044 152.93 174.15C152.211 173.134 151.654 172.014 151.277 170.829C150.845 169.494 150.554 168.118 150.408 166.723C150.257 165.334 150.257 163.933 150.408 162.544C150.535 161.199 150.86 159.881 151.373 158.631C151.839 157.493 152.538 156.464 153.425 155.612C154.328 154.78 155.484 154.274 156.708 154.175C157.86 154.016 159.032 154.259 160.027 154.864C160.984 155.476 161.785 156.303 162.368 157.279C163.034 158.41 163.538 159.63 163.865 160.902C164.234 162.218 164.493 163.563 164.637 164.923C164.8 166.364 164.8 167.818 164.637 169.259C164.507 170.534 164.177 171.781 163.659 172.954C163.2 173.996 162.506 174.918 161.632 175.647C160.734 176.345 159.651 176.765 158.518 176.855ZM157.118 160.624C156.939 160.64 156.766 160.697 156.611 160.789C156.457 160.881 156.325 161.006 156.225 161.155C155.974 161.521 155.794 161.931 155.694 162.363C155.565 162.901 155.497 163.452 155.489 164.005C155.477 164.602 155.501 165.199 155.561 165.793C155.635 166.472 155.752 167.145 155.911 167.81C156.057 168.421 156.255 169.019 156.503 169.597C156.691 170.045 156.961 170.454 157.299 170.804C157.424 170.94 157.578 171.046 157.749 171.113C157.921 171.179 158.105 171.206 158.289 171.191C158.502 171.169 158.705 171.087 158.874 170.955C159.043 170.822 159.17 170.644 159.242 170.442C159.465 169.936 159.608 169.398 159.665 168.848C159.746 168.22 159.778 167.586 159.761 166.952C159.761 166.312 159.701 165.744 159.665 165.346C159.598 164.794 159.501 164.245 159.375 163.704C159.264 163.163 159.094 162.637 158.868 162.134C158.7 161.689 158.45 161.279 158.132 160.926C157.997 160.802 157.835 160.71 157.66 160.658C157.484 160.606 157.299 160.594 157.118 160.624Z" fill="white"/>
<path d="M182.922 160.66C182.922 161.083 183.006 161.687 183.054 162.484C183.103 163.281 183.127 164.138 183.115 165.092C183.103 166.046 183.115 167.012 182.982 168.015C182.898 168.936 182.741 169.848 182.511 170.744C182.324 171.489 182.01 172.196 181.582 172.833C181.415 173.092 181.194 173.31 180.933 173.473C180.672 173.636 180.379 173.739 180.073 173.775C179.501 173.833 178.924 173.715 178.42 173.437C177.89 173.138 177.406 172.764 176.984 172.326C176.536 171.874 176.131 171.381 175.777 170.853C175.427 170.321 175.125 169.838 174.884 169.392C174.377 168.45 173.858 167.52 173.351 166.602C172.844 165.684 172.349 164.766 171.878 163.812L171.963 164.633C172.059 165.467 172.144 166.288 172.216 167.049C172.298 167.851 172.322 168.658 172.289 169.464V170.672C172.285 171.112 172.257 171.551 172.204 171.988C172.157 172.401 172.06 172.806 171.915 173.196C171.793 173.553 171.566 173.864 171.263 174.089C171.126 174.194 170.97 174.272 170.804 174.319L170.334 174.452H170.249C170.036 174.482 169.82 174.469 169.612 174.413C169.405 174.357 169.211 174.259 169.042 174.126C168.677 173.826 168.37 173.461 168.137 173.051C167.855 172.562 167.628 172.044 167.461 171.505C167.268 170.925 167.111 170.297 166.978 169.802C166.846 169.307 166.749 168.715 166.677 168.232C166.604 167.749 166.556 167.363 166.52 167.025C166.484 166.686 166.423 165.926 166.375 165.056C166.327 164.187 166.29 163.233 166.375 162.17C166.459 161.107 166.375 160.02 166.52 158.897C166.591 157.855 166.749 156.821 166.99 155.806C167.173 154.98 167.495 154.192 167.944 153.475C168.1 153.194 168.32 152.953 168.587 152.773C168.853 152.592 169.158 152.477 169.477 152.436C169.778 152.406 170.082 152.438 170.37 152.53C170.658 152.621 170.925 152.77 171.154 152.968C171.705 153.401 172.193 153.909 172.603 154.477C173.036 155.079 173.416 155.717 173.737 156.385C174.075 157.049 174.34 157.593 174.57 158.052C174.992 158.933 175.415 159.803 175.777 160.672C176.139 161.542 176.585 162.411 176.984 163.317L177.14 163.619C177.213 163.788 177.309 163.969 177.406 164.175C177.503 164.38 177.635 164.658 177.78 164.935C177.766 164.753 177.742 164.572 177.708 164.392C177.702 164.295 177.702 164.199 177.708 164.102C177.708 164.022 177.708 163.913 177.708 163.776C177.708 163.643 177.708 163.426 177.635 163.136C177.551 162.496 177.466 161.856 177.394 161.228C177.322 160.6 177.237 160.02 177.177 159.344C177.177 159.066 177.104 158.692 177.068 158.209C177.032 157.726 176.996 157.194 176.984 156.639C176.972 156.083 176.984 155.528 176.984 154.948C177.012 154.416 177.101 153.89 177.249 153.378C177.362 152.944 177.554 152.534 177.816 152.171C177.936 152.018 178.085 151.891 178.256 151.797C178.426 151.704 178.613 151.646 178.806 151.627C179.041 151.603 179.278 151.627 179.502 151.7C179.727 151.773 179.934 151.892 180.109 152.05C180.531 152.421 180.879 152.867 181.135 153.366C181.446 153.955 181.696 154.574 181.884 155.214C182.101 155.914 182.282 156.591 182.427 157.255C182.572 157.919 182.692 158.547 182.777 159.127C182.861 159.706 182.885 160.334 182.922 160.66Z" fill="white"/>
<path fill-rule="evenodd" clip-rule="evenodd" d="M238.427 111.497C234.957 113.833 231.617 116.357 228.422 119.057C226.008 121.194 229.544 124.709 231.958 122.595C234.826 120.17 237.827 117.908 240.949 115.82C243.568 113.985 241.07 109.649 238.427 111.497Z" fill="white"/>
<path fill-rule="evenodd" clip-rule="evenodd" d="M245.596 105.797C242.373 105.797 242.373 110.809 245.596 110.809C248.818 110.809 248.83 105.797 245.596 105.797Z" fill="white"/>
<path fill-rule="evenodd" clip-rule="evenodd" d="M135.551 56.1145C135.132 56.1502 134.742 56.3418 134.457 56.6516C134.173 56.9613 134.015 57.3666 134.015 57.7871C134.015 58.2077 134.173 58.613 134.457 58.9227C134.742 59.2324 135.132 59.4241 135.551 59.4597C135.97 59.4241 136.36 59.2324 136.644 58.9227C136.928 58.613 137.086 58.2077 137.086 57.7871C137.086 57.3666 136.928 56.9613 136.644 56.6516C136.36 56.3418 135.97 56.1502 135.551 56.1145Z" fill="white"/>
<path fill-rule="evenodd" clip-rule="evenodd" d="M41.9075 67.1283C41.4657 67.1283 41.0421 67.3038 40.7298 67.6164C40.4174 67.9289 40.2419 68.3528 40.2419 68.7948C40.2419 69.2368 40.4174 69.6607 40.7298 69.9732C41.0421 70.2858 41.4657 70.4613 41.9075 70.4613C42.3492 70.4613 42.7728 70.2858 43.0852 69.9732C43.3975 69.6607 43.573 69.2368 43.573 68.7948C43.573 68.3528 43.3975 67.9289 43.0852 67.6164C42.7728 67.3038 42.3492 67.1283 41.9075 67.1283Z" fill="white"/>
<path fill-rule="evenodd" clip-rule="evenodd" d="M115.89 85.1825C115.806 83.045 112.475 83.0329 112.559 85.1825C112.644 87.3321 111.702 90.0976 109.277 90.5807C107.177 91.0034 108.07 94.2036 110.17 93.793C114.008 93.0201 116.023 88.8296 115.89 85.1825Z" fill="#29AEFD"/>
<path fill-rule="evenodd" clip-rule="evenodd" d="M179.47 87.9239C179.385 85.7743 176.054 85.7622 176.139 87.9239C176.223 90.0856 175.282 92.8269 172.856 93.31C170.756 93.7326 171.649 96.9329 173.749 96.5344C177.587 95.7615 179.615 91.5589 179.47 87.9239Z" fill="#29AEFD"/>
<path fill-rule="evenodd" clip-rule="evenodd" d="M158.337 65.2685C158.253 63.1309 154.921 63.1189 154.994 65.2685C155.066 67.4181 154.149 70.1836 151.723 70.6666C149.623 71.0893 150.516 74.2896 152.604 73.879C156.454 73.1061 158.47 68.9156 158.337 65.2685Z" fill="#29AEFD"/>
<path fill-rule="evenodd" clip-rule="evenodd" d="M174.606 38.024C174.522 35.8865 171.19 35.8744 171.275 38.024C171.359 40.1736 170.418 42.9391 167.992 43.4222C165.892 43.8449 166.785 47.0451 168.873 46.6345C172.723 45.8616 174.739 41.6711 174.606 38.024Z" fill="#29AEFD"/>
<path fill-rule="evenodd" clip-rule="evenodd" d="M205.672 44.3279C205.599 42.1783 202.256 42.1783 202.341 44.3279C202.425 46.4775 201.484 49.243 199.07 49.7261C196.958 50.1488 197.863 53.349 199.951 52.9384C203.801 52.1655 205.816 47.975 205.672 44.3279Z" fill="#29AEFD"/>
<path fill-rule="evenodd" clip-rule="evenodd" d="M209.196 75.1229C209.111 72.9732 205.78 72.9732 205.865 75.1229C205.949 77.2725 205.008 80.038 202.582 80.521C200.482 80.9437 201.375 84.144 203.475 83.7334C207.325 82.9605 209.341 78.7699 209.196 75.1229Z" fill="#29AEFD"/>
<path fill-rule="evenodd" clip-rule="evenodd" d="M86.8282 98.2855C86.7438 96.1359 83.4127 96.1359 83.4972 98.2855C83.5817 100.435 82.6403 103.188 80.2265 103.684C78.1144 104.106 79.0196 107.307 81.1075 106.896C84.9575 106.159 86.9731 101.933 86.8282 98.2855Z" fill="#29AEFD"/>
<path fill-rule="evenodd" clip-rule="evenodd" d="M64.1506 75.1229C64.0661 72.9732 60.7351 72.9732 60.8196 75.1229C60.904 77.2725 59.9627 80.038 57.5489 80.521C55.4368 80.9437 56.342 84.144 58.4299 83.7334C62.2799 82.9605 64.2954 78.7699 64.1506 75.1229Z" fill="#29AEFD"/>
<path fill-rule="evenodd" clip-rule="evenodd" d="M79.792 48.5547C79.7075 46.4051 76.3765 46.393 76.461 48.5547C76.5455 50.7164 75.6041 53.4577 73.1782 53.9408C71.0782 54.3635 71.9713 57.5637 74.0713 57.1531C77.9093 56.3923 79.9248 52.1897 79.792 48.5547Z" fill="#29AEFD"/>
<path fill-rule="evenodd" clip-rule="evenodd" d="M109.614 53.1196C109.648 54.3139 109.385 55.498 108.85 56.5662C108.315 57.6345 107.525 58.5538 106.549 59.2423C104.835 60.45 106.549 63.3846 108.227 62.1165C109.695 61.1242 110.895 59.7829 111.719 58.2128C112.542 56.6427 112.964 54.8927 112.946 53.1196C112.946 52.6776 112.77 52.2537 112.458 51.9412C112.145 51.6286 111.722 51.453 111.28 51.453C110.838 51.453 110.415 51.6286 110.102 51.9412C109.79 52.2537 109.614 52.6776 109.614 53.1196Z" fill="#29AEFD"/>
<path fill-rule="evenodd" clip-rule="evenodd" d="M186.53 110.99C178.746 111.859 171.009 113.152 163.213 113.828C161.089 114.021 161.065 117.354 163.213 117.161C171.009 116.485 178.746 115.192 186.53 114.335C188.642 114.069 188.666 110.736 186.53 110.99Z" fill="white"/>
<path fill-rule="evenodd" clip-rule="evenodd" d="M192.203 110.64C191.761 110.64 191.337 110.815 191.025 111.128C190.713 111.44 190.537 111.864 190.537 112.306C190.537 112.748 190.713 113.172 191.025 113.485C191.337 113.797 191.761 113.973 192.203 113.973C192.644 113.973 193.068 113.797 193.38 113.485C193.693 113.172 193.868 112.748 193.868 112.306C193.868 111.864 193.693 111.44 193.38 111.128C193.068 110.815 192.644 110.64 192.203 110.64Z" fill="white"/>
<path fill-rule="evenodd" clip-rule="evenodd" d="M156.044 114.468C155.625 114.504 155.235 114.695 154.951 115.005C154.666 115.315 154.508 115.72 154.508 116.14C154.508 116.561 154.666 116.966 154.951 117.276C155.235 117.586 155.625 117.777 156.044 117.813C156.463 117.777 156.853 117.586 157.137 117.276C157.422 116.966 157.579 116.561 157.579 116.14C157.579 115.72 157.422 115.315 157.137 115.005C156.853 114.695 156.463 114.504 156.044 114.468Z" fill="white"/>
</svg>
