<svg xmlns="http://www.w3.org/2000/svg" viewBox="0 0 187.18 333.56"><defs><style>.cls-1{fill:#feb548;}.cls-2{fill:none;stroke:#fff;stroke-miterlimit:10;}.cls-3{fill:#c94a28;}.cls-4{fill:#ba371e;}</style></defs><g id="Layer_2" data-name="Layer 2"><g id="Objects"><path class="cls-1" d="M107.5,333.56a12.82,12.82,0,0,1-12.61-10.68,13.25,13.25,0,0,1,.47-6.12l1.9-6.27-20.16-6.9a95.46,95.46,0,0,1-64.55-90L0,3.23A3,3,0,0,1,4.43.35l46.88,24a3,3,0,0,0,2.78,0l46.28-24a3,3,0,0,1,4.43,2.84L94.43,213.5a13.57,13.57,0,0,0,9.18,12.61l17.48,6,2.41-8a13.1,13.1,0,0,1,12-9.42,12.66,12.66,0,0,1,11.35,6.21l38.54,64.27a12.79,12.79,0,0,1-5.89,18.32l-66.87,29a12.67,12.67,0,0,1-5.1,1.06Z"/><path class="cls-2" d="M107.51,328.1a7.36,7.36,0,0,1-7.24-6.14,8,8,0,0,1,.31-3.61L104,307l-25.16-8.61A90,90,0,0,1,18,213.58v-.15L5.71,7.14,48.82,29.21a8.46,8.46,0,0,0,7.79,0L99.14,7.13,89,213.41v.18a19.08,19.08,0,0,0,12.86,17.69l22.83,7.81,4.06-13.36a7.68,7.68,0,0,1,6.9-5.56h.23a7.26,7.26,0,0,1,6.28,3.56L180.68,288a7.33,7.33,0,0,1-3.38,10.5l-66.87,29A7.25,7.25,0,0,1,107.51,328.1Z"/><path class="cls-3" d="M176,290.82l-38.54-64.28a1.88,1.88,0,0,0-3.4.42l-5.81,19.12-28.17-9.64a24.49,24.49,0,0,1-16.57-23.17L93,21.64a3,3,0,0,0-4.43-2.85L52.74,37.35,16.46,18.78A3,3,0,0,0,12,21.66L23.46,213.27a84.56,84.56,0,0,0,57.17,80l30.15,10.31-5.06,16.65a1.88,1.88,0,0,0,2.54,2.27l66.87-29A1.87,1.87,0,0,0,176,290.82Z"/><path class="cls-4" d="M95.58,234.35A24.48,24.48,0,0,0,112,255.16l28.18,9.64L146,245.68a1.85,1.85,0,0,1,2.16-1.29l-10.7-17.85a1.88,1.88,0,0,0-3.4.42l-5.81,19.12-28.17-9.64A24.28,24.28,0,0,1,95.58,234.35Z"/><path class="cls-4" d="M35.4,232,24,40.38a3,3,0,0,1,4.42-2.89L64.67,56.07,92,41.91l1-20.27a3,3,0,0,0-4.43-2.85L52.74,37.35,16.46,18.78A3,3,0,0,0,12,21.66L23.46,213.27A84.41,84.41,0,0,0,43.33,267.7,84.37,84.37,0,0,1,35.4,232Z"/><path class="cls-4" d="M106.75,316.83l-1,3.39a1.88,1.88,0,0,0,2.54,2.27l6.63-2.88Z"/><path class="cls-1" d="M53.24,93.57a6.35,6.35,0,1,1,6.42-6.13A6.27,6.27,0,0,1,53.24,93.57Z"/><path class="cls-1" d="M52.48,122.73a6.34,6.34,0,1,1,6.34-6.2A6.26,6.26,0,0,1,52.48,122.73Z"/><path class="cls-1" d="M52.1,151.91a6.35,6.35,0,1,1,6.25-6.29A6.28,6.28,0,0,1,52.1,151.91Z"/><path class="cls-1" d="M52.28,181.08a6.34,6.34,0,1,1,6.11-6.42A6.26,6.26,0,0,1,52.28,181.08Z"/><path class="cls-1" d="M53.49,210.23a6.35,6.35,0,0,1-.71-12.67,6.35,6.35,0,0,1,.71,12.67Z"/><path class="cls-1" d="M59.08,238.6a5.43,5.43,0,0,1-2.31.92,5.19,5.19,0,0,1-1.25,0,4.6,4.6,0,0,1-1.32-.48,7.51,7.51,0,0,1-3.64-4.63c-1-3.94,1.34-7.29,4.71-7.82a6.58,6.58,0,0,1,7.29,4.59A4.6,4.6,0,0,1,62,235c-.17.27-.38.56-.57.88a9.34,9.34,0,0,1-.59,1A7.15,7.15,0,0,1,59.08,238.6Z"/><path class="cls-1" d="M81.12,257.47a6.34,6.34,0,1,1-10.35-7.32,6.34,6.34,0,0,1,10.35,7.32Z"/><path class="cls-1" d="M106.37,272.06A6.34,6.34,0,0,1,95.23,266a6.34,6.34,0,0,1,11.14,6.05Z"/></g></g></svg>