<svg xmlns="http://www.w3.org/2000/svg" viewBox="0 0 204.34 189.48"><defs><style>.cls-1{fill:#f1854f;}.cls-1,.cls-11,.cls-2,.cls-4,.cls-8,.cls-9{fill-rule:evenodd;}.cls-2{fill:#f9d555;}.cls-11,.cls-3{fill:#fff;}.cls-4,.cls-5{fill:#074785;}.cls-6{fill:#fd6085;}.cls-7{fill:#7befe5;}.cls-8{fill:#ffa4ac;}.cls-10,.cls-9{fill:#29aefd;}</style></defs><g id="Layer_2" data-name="Layer 2"><g id="OBJECTS"><path class="cls-1" d="M146.12,160.31c.77,4.71-1.4,9-4.83,9.59L22.47,189.42c-3.42.56-6.86-2.83-7.64-7.55L.16,92.52c-.78-4.72,1.4-9,4.82-9.6L123.8,63.41c3.43-.57,6.87,2.83,7.64,7.54Z"/><path class="cls-2" d="M134.16,149.29c.56,3.47-1.33,6.69-4.22,7.16L29.86,172.89c-2.88.47-5.71-2-6.28-5.43L12.8,101.84c-.57-3.46,1.33-6.68,4.22-7.16L117.09,78.24c2.89-.47,5.72,2,6.29,5.43Z"/><path class="cls-3" d="M39.09,81.34c-6.74,1.28-13.55,2.07-20.29,3.35-2.39.46-1.73,4.15.66,3.69C26.2,87.09,33,86.3,39.75,85,42.14,84.56,41.48,80.88,39.09,81.34Z"/><path class="cls-3" d="M45.39,80.12c-2.39.46-1.73,4.14.65,3.68S47.78,79.65,45.39,80.12Z"/><path class="cls-3" d="M121.77,168.28c-5,.91-10.09,1.46-15.11,2.37a1.39,1.39,0,0,0,.47,2.74c5-.91,10.09-1.45,15.11-2.36A1.4,1.4,0,0,0,121.77,168.28Z"/><path class="cls-3" d="M126.46,167.42a1.39,1.39,0,0,0,.47,2.74A1.39,1.39,0,0,0,126.46,167.42Z"/><path class="cls-3" d="M11.42,86.31c-2.39.47-1.73,4.15.66,3.69S13.81,85.85,11.42,86.31Z"/><path class="cls-4" d="M113.76,70.28a5.29,5.29,0,1,1-6.08-4.35A5.29,5.29,0,0,1,113.76,70.28Z"/><path class="cls-4" d="M109.3,77.93A2.92,2.92,0,1,1,106,75.52,2.91,2.91,0,0,1,109.3,77.93Z"/><path class="cls-3" d="M69.53,114.6A17.31,17.31,0,1,1,50.09,99.72,17.31,17.31,0,0,1,69.53,114.6Z"/><path class="cls-5" d="M66.42,115a12.8,12.8,0,1,1-14.37-11A12.8,12.8,0,0,1,66.42,115Z"/><path class="cls-5" d="M67.06,131s10.15-.95,16.6-3.13c0,0,6.09,20.5-5.25,22C68,151.27,67.06,131,67.06,131Z"/><path class="cls-6" d="M52.85,138.58c.32,2.13-1.87,4.22-4.9,4.67s-5.73-.89-6.05-3,1.87-4.21,4.9-4.67S52.53,136.46,52.85,138.58Z"/><path class="cls-6" d="M108.15,127.24c.31,2.06-1.82,4.08-4.76,4.52s-5.56-.86-5.87-2.92,1.82-4.08,4.75-4.52S107.84,125.19,108.15,127.24Z"/><path class="cls-6" d="M80.82,140.77c-4.33,1.07-7.06,4-7.52,7.72a6.56,6.56,0,0,0,5.11,1.4c4.84-.64,6.5-4.74,6.82-9.22A9.61,9.61,0,0,0,80.82,140.77Z"/><path class="cls-3" d="M63.18,109.94A12.09,12.09,0,0,0,57,106.28c-1.11-.23-1.34,1.52-.24,1.74a10.11,10.11,0,0,1,5.08,3C62.57,111.82,64,110.75,63.18,109.94Z"/><path class="cls-3" d="M54,105.61l-.84-.07a.89.89,0,0,0-1,.75.88.88,0,0,0,.75,1l.84.07a.9.9,0,0,0,1-.75A.88.88,0,0,0,54,105.61Z"/><path class="cls-3" d="M64.86,112.79a.88.88,0,0,0-1.39,1.08v0a.88.88,0,0,0,1.74-.23A2.29,2.29,0,0,0,64.86,112.79Z"/><path class="cls-3" d="M63.46,113.87s0,0,0,0a.06.06,0,0,1,0,0C63.33,113.66,63.44,113.81,63.46,113.87Z"/><path class="cls-3" d="M63.48,113.91c0,.12,0,.06,0,0Z"/><polygon class="cls-3" points="63.47 113.87 63.47 113.87 63.47 113.87 63.47 113.87"/><path class="cls-3" d="M106.24,106.19A17.31,17.31,0,1,1,86.8,91.3,17.31,17.31,0,0,1,106.24,106.19Z"/><path class="cls-5" d="M100.71,107.24a12.8,12.8,0,1,1-14.38-11A12.81,12.81,0,0,1,100.71,107.24Z"/><path class="cls-3" d="M97.47,102.17a12.13,12.13,0,0,0-6.22-3.66c-1.11-.22-1.34,1.52-.24,1.75a9.9,9.9,0,0,1,5.07,3C96.87,104.05,98.26,103,97.47,102.17Z"/><path class="cls-3" d="M88.32,97.84l-.83-.07a.89.89,0,0,0-1,.75.88.88,0,0,0,.75,1l.83.07a.9.9,0,0,0,1-.75A.89.89,0,0,0,88.32,97.84Z"/><path class="cls-3" d="M99.15,105a.87.87,0,0,0-1.23-.16.89.89,0,0,0-.16,1.23,0,0,0,0,0,0,0,.9.9,0,0,0,1,.76.88.88,0,0,0,.75-1A2,2,0,0,0,99.15,105Z"/><path class="cls-3" d="M97.75,106.1s0,0,0,0a.06.06,0,0,1,0,0C97.62,105.89,97.72,106.05,97.75,106.1Z"/><path class="cls-3" d="M97.77,106.14c0,.13,0,.06,0,0Z"/><polygon class="cls-3" points="97.76 106.11 97.76 106.1 97.76 106.1 97.76 106.11"/><path class="cls-7" d="M189.58,104.64a7.73,7.73,0,0,1-9,6.1L75.9,90.37a7.73,7.73,0,0,1-6.09-9L84.42,6.24a7.73,7.73,0,0,1,9-6.1L198.11,20.51a7.73,7.73,0,0,1,6.09,9Z"/><path class="cls-6" d="M183,95.62a6.49,6.49,0,0,1-7.72,4.91L85.17,83a6.49,6.49,0,0,1-5.31-7.45L91.8,14.2a6.48,6.48,0,0,1,7.71-4.91l90.15,17.54A6.48,6.48,0,0,1,195,34.28Z"/><path class="cls-5" d="M182.28,99.51a2.64,2.64,0,0,1-3.1,2.08l-98-19.07a2.64,2.64,0,0,1-2.09-3.1l2.12-10.88a2.65,2.65,0,0,1,3.1-2.09l98,19.07a2.65,2.65,0,0,1,2.09,3.1Z"/><path class="cls-8" d="M159.7,50.84a22.33,22.33,0,1,1-18.26-25.76A22.32,22.32,0,0,1,159.7,50.84Z"/><path class="cls-4" d="M132.48,33.54a1.23,1.23,0,0,0-2.16.83l-3.8,22.29c-.21,1.24.59,1.91,1.77,1.49l22.07-7.77c1.18-.42,1.35-1.41.37-2.19Z"/><path class="cls-9" d="M193.78,72.72a1.91,1.91,0,0,1-2.24,1.51h0A1.9,1.9,0,0,1,190,72l1.4-7.2a1.91,1.91,0,0,1,2.24-1.51h0a1.9,1.9,0,0,1,1.51,2.24Z"/><rect class="cls-10" x="129.9" y="26.24" width="5.72" height="105.12" transform="translate(30.05 194.06) rotate(-78.99)"/><rect class="cls-10" x="92.09" y="57.4" width="5.72" height="28.07" transform="translate(6.69 150.99) rotate(-78.98)"/><path class="cls-11" d="M115.68,75.24a4.68,4.68,0,1,1-3.7-5.48A4.68,4.68,0,0,1,115.68,75.24Z"/><path class="cls-11" d="M153.18,58.31a22.83,22.83,0,0,1-10.4,7.76.55.55,0,0,0,.36,1A23.82,23.82,0,0,0,154,59C154.45,58.48,153.62,57.75,153.18,58.31Z"/><path class="cls-11" d="M155.26,55.85a.55.55,0,0,0-.21,1.08A.55.55,0,0,0,155.26,55.85Z"/><path class="cls-11" d="M140.65,66.36a.55.55,0,0,0-.21,1.08A.55.55,0,0,0,140.65,66.36Z"/><path class="cls-11" d="M142.71,26.75a25.08,25.08,0,0,0-11-.06c-.69.17-.32,1.21.36,1a23.72,23.72,0,0,1,10.47.1A.55.55,0,0,0,142.71,26.75Z"/><path class="cls-11" d="M144.7,27.28a.55.55,0,0,0-.21,1.08A.55.55,0,0,0,144.7,27.28Z"/><path class="cls-11" d="M185.47,20.33l-17-3.31a1.66,1.66,0,0,0-.64,3.25l17,3.31A1.66,1.66,0,0,0,185.47,20.33Z"/><path class="cls-11" d="M190.49,21.46a1.65,1.65,0,0,0-.63,3.24A1.65,1.65,0,0,0,190.49,21.46Z"/><path class="cls-11" d="M163.25,16.16a1.65,1.65,0,0,0-.63,3.24A1.65,1.65,0,0,0,163.25,16.16Z"/><path class="cls-11" d="M181.42,70.14l-1.71,8.8a1.66,1.66,0,0,0,3.25.63l1.71-8.79A1.66,1.66,0,0,0,181.42,70.14Z"/><path class="cls-11" d="M184.2,63a1.65,1.65,0,0,0-.64,3.24A1.65,1.65,0,0,0,184.2,63Z"/><path class="cls-11" d="M123.74,122.73l1.37,8.85a1.66,1.66,0,0,0,3.27-.51L127,122.22A1.65,1.65,0,0,0,123.74,122.73Z"/><path class="cls-11" d="M123.92,115.08a1.66,1.66,0,0,0,.51,3.27A1.66,1.66,0,0,0,123.92,115.08Z"/><path class="cls-11" d="M128.14,136.62a1.65,1.65,0,0,0,.51,3.26A1.65,1.65,0,0,0,128.14,136.62Z"/><path class="cls-11" d="M17.54,106.8l1.61,10.31a1.92,1.92,0,0,0,3.8-.59l-1.6-10.32C21,103.75,17.16,104.34,17.54,106.8Z"/><path class="cls-11" d="M22.18,121.49c-2.45.39-1.86,4.19.59,3.81A1.93,1.93,0,0,0,22.18,121.49Z"/><path class="cls-11" d="M163,102.58l-12.68-2.47a1.66,1.66,0,0,0-.63,3.25l12.68,2.46A1.65,1.65,0,0,0,163,102.58Z"/><path class="cls-11" d="M168,103.39a1.65,1.65,0,0,0-.63,3.24A1.65,1.65,0,0,0,168,103.39Z"/><path class="cls-8" d="M17.48,145A2.55,2.55,0,0,1,15.43,148h0a2.53,2.53,0,0,1-2.94-2.05l-2-11.46a2.54,2.54,0,0,1,2.05-2.94h0a2.54,2.54,0,0,1,2.94,2Z"/><path class="cls-5" d="M135.92,159.65a2.65,2.65,0,0,1-2.39,2.87L28.18,179.79a2.65,2.65,0,0,1-3.18-2l-1.67-10.15a2.65,2.65,0,0,1,2.39-2.87l105.36-17.27a2.65,2.65,0,0,1,3.18,2Z"/><rect class="cls-6" x="22.62" y="156.14" width="112.41" height="5.31" transform="translate(-24.65 14.84) rotate(-9.31)"/><rect class="cls-6" x="23.17" y="162.8" width="30.02" height="5.31" transform="translate(-26.27 8.36) rotate(-9.31)"/><path class="cls-11" d="M58.64,161.94a4.46,4.46,0,1,1-5.15-3.9A4.57,4.57,0,0,1,58.64,161.94Z"/><path class="cls-5" d="M110,28.69c-.32-.31-1-4.64-1.55-4.61s-1.08,4.34-1.36,4.62c-.54.57-4.54,1-4.51,1.52s4,.81,4.51,1.35c.31.3,1,4.65,1.55,4.61s1.08-4.32,1.36-4.61c.53-.55,4.56-1,4.53-1.53S110.52,29.21,110,28.69Z"/><path class="cls-5" d="M168,68c-.32-.31-1-4.64-1.54-4.61s-1.09,4.34-1.37,4.62c-.54.57-4.54,1-4.51,1.52s4,.81,4.52,1.35c.31.3,1,4.65,1.54,4.61s1.08-4.32,1.36-4.61c.53-.55,4.56-1,4.53-1.53S168.53,68.5,168,68Z"/><path class="cls-3" d="M101,54.68c-.32-.31-1-4.65-1.54-4.62s-1.09,4.34-1.37,4.62c-.54.57-4.54,1-4.51,1.53s4,.8,4.51,1.34c.32.3,1,4.65,1.55,4.62s1.08-4.33,1.36-4.62c.53-.55,4.56-1,4.53-1.52S101.54,55.19,101,54.68Z"/><path class="cls-3" d="M179.46,37.48c-.32-.31-1-4.64-1.54-4.61s-1.09,4.34-1.36,4.62c-.55.57-4.55,1-4.51,1.52s3.95.81,4.51,1.35c.31.3,1,4.65,1.54,4.61s1.08-4.32,1.37-4.61c.53-.55,4.55-1,4.52-1.53S180,38,179.46,37.48Z"/><path class="cls-9" d="M84.42,45.7A2.69,2.69,0,1,1,81.74,43,2.68,2.68,0,0,1,84.42,45.7Z"/><path class="cls-8" d="M137.66,119.78a3.4,3.4,0,1,1-3.4-3.4A3.4,3.4,0,0,1,137.66,119.78Z"/><path class="cls-3" d="M95,41.55a1.47,1.47,0,0,0,0,2.93A1.47,1.47,0,0,0,95,41.55Z"/><path class="cls-3" d="M101.64,16.27a1.47,1.47,0,0,0,0,2.93A1.47,1.47,0,0,0,101.64,16.27Z"/><path class="cls-3" d="M174.53,53.44a1.47,1.47,0,0,0,0,2.93A1.47,1.47,0,0,0,174.53,53.44Z"/><path class="cls-3" d="M162,28.67a1.47,1.47,0,0,0,0,2.93A1.47,1.47,0,0,0,162,28.67Z"/><path class="cls-3" d="M151.37,71.76a1.47,1.47,0,0,0,0,2.93A1.47,1.47,0,0,0,151.37,71.76Z"/><path class="cls-3" d="M103.5,142.8a1.47,1.47,0,0,0,0,2.93A1.47,1.47,0,0,0,103.5,142.8Z"/><path class="cls-3" d="M115.76,110.19a1.47,1.47,0,0,0,0,2.93A1.47,1.47,0,0,0,115.76,110.19Z"/><path class="cls-3" d="M33.29,150.75a1.47,1.47,0,0,0,0,2.93A1.47,1.47,0,0,0,33.29,150.75Z"/><path class="cls-3" d="M31.88,103.55a1.47,1.47,0,0,0,0,2.93A1.47,1.47,0,0,0,31.88,103.55Z"/></g></g></svg>