<svg xmlns="http://www.w3.org/2000/svg" viewBox="0 0 144.44 207.35"><defs><style>.cls-1,.cls-7{fill:#29aefd;}.cls-2{fill:#7befe5;}.cls-3,.cls-5{fill:#074785;}.cls-4{fill:#f9d555;}.cls-10,.cls-11,.cls-4,.cls-5,.cls-7,.cls-8,.cls-9{fill-rule:evenodd;}.cls-6,.cls-9{fill:#fff;}.cls-8{fill:#f1854f;}.cls-10,.cls-13{fill:#ffa4ac;}.cls-11,.cls-12{fill:#fd6085;}</style></defs><g id="Layer_2" data-name="Layer 2"><g id="OBJECTS"><path class="cls-1" d="M134.85,93.75c.84-5.57,1.31-10.1,1.31-10.1.38-3.57.22-6.54-.3-6.64l-.4.13c-12.81,4.13-30,4.39-44.2,4.92A370.45,370.45,0,0,1,51,81.49c-6-.4-11.91-1-17.82-1.58-5.34-.58-14-3-19.27-1.93l-.12,0a8.11,8.11,0,0,1-2-.87s0,0-1-.28c-4.25-1.14-4.25-1.12-4.25-1.13.07,2,.36,5.41.65,7.54l.33,1.92A707.64,707.64,0,0,0,26.93,168.4a2.08,2.08,0,0,0,1.2,1.44c1.22.59,2.36,1.36,3.59,1.91,25,12,57.75,11.32,82.6-1.77a3.49,3.49,0,0,0,1.89-1.95c1.78-4.49,3.22-8.95,4.54-13.37A442.17,442.17,0,0,0,134.85,93.75Z"/><path class="cls-2" d="M45.7,74.82C48.76,109,53,144,57.27,179.54A74,74,0,0,0,68,182.36c-1.17-13.71-2.38-27.4-3.5-41.05-1.68-19.93-3.33-39.77-4.78-59.48-.13-1.81-.28-3.62-.43-5.44-4.48-.44-9-1-13.39-1.55Z"/><path class="cls-2" d="M28.87,73.24c-2.13.05-4.06,0-6,.18l-6.5.36c1,5.16,3.38,17.78,4.51,23.16q2.68,13.13,5.71,26.65c2.06,9.25,4.22,18.63,6.42,28.12q2.52,11,5.11,22.11c.28.14.55.27.84.39,2.1.87,4.25,1.7,6.43,2.47C39,141,33,106.54,28.87,73.24Z"/><path class="cls-2" d="M89.44,178.56c3.91-32.85,7.77-65.19,10.67-96.82-3,.12-6,.21-8.85.32-1.71.07-3.42.12-5.13.17-1.36,19.3-2.91,38.72-4.51,58.23-1,13.16-2.16,26.35-3.24,39.56A99.89,99.89,0,0,0,89.44,178.56Z"/><path class="cls-2" d="M117.73,80.58c-4.2,30.63-10,62.24-16.18,94.83,2.61-.87,5.17-1.86,7.66-3q2.67-10.94,5.26-21.68c2.3-9.49,4.57-18.87,6.73-28.12q3.15-13.52,6-26.65c.86-3.91,2.44-11.65,3.63-17.57A105.62,105.62,0,0,1,117.73,80.58Z"/><path class="cls-3" d="M84.65,179.35C84,173,83.45,166.77,83,160.76c-.09-1.09-.18-2.16-.26-3.24l.36-.06a2,2,0,0,0,1.54-2c-.11-1.59-.22-3.14-.31-4.66a1.83,1.83,0,0,0-1.83-1.63c-1.89,0-3.77,0-5.64,0-.3-1.61-.59-3.21-.87-4.79a2.19,2.19,0,0,0-2-1.73q-6.31,0-12.53.4a34.57,34.57,0,0,1-1.75-4.52l-2.82,4.89a170,170,0,0,0-17.88,2.65,1.64,1.64,0,0,0-1.18,2.07l1.11,4.06.66,0c-1.85.3-3.68.61-5.51,1a1.56,1.56,0,0,0-1.21,2c.38,1.37.75,2.75,1.12,4.13a2.42,2.42,0,0,0,2.2,1.67h2.08c.43,1,.85,2.07,1.28,3.11q1.44,3.54,2.89,7.16l1,.47A106,106,0,0,0,78.7,180C80.69,179.84,82.67,179.62,84.65,179.35Z"/><path class="cls-4" d="M9.38,80.48a3.73,3.73,0,0,0-.91-1.83c-9.3-11.51-7.6-28.49,3.8-37,1-.77.93-1.62.91-2.68-.27-11.85,6-21.47,15.8-24.17a16.14,16.14,0,0,1,10.31.54,1.35,1.35,0,0,0,1.91-.48,19.2,19.2,0,0,1,14-8.2,3.81,3.81,0,0,0,2.11-1c8.09-7.89,19.57-7.47,27.15,1.08.69.78,1.17,1.29,2.31.77,8.79-4.06,18-1,23.83,8a3.25,3.25,0,0,0,2.65,1.69c9.46,1.08,16.48,8.7,18.33,19.63a4.9,4.9,0,0,0,1.38,2.7c10.58,8.93,11.78,26,2.56,36.81a4.6,4.6,0,0,0-1,2.35"/><path class="cls-5" d="M136,84.74c.08-.7.12-1.09.12-1.09.38-3.57.22-6.54-.3-6.64l-.4.13c-12.81,4.13-30,4.39-44.2,4.92A370.45,370.45,0,0,1,51,81.49c-6-.4-11.91-1-17.82-1.58-5.34-.58-14-3-19.27-1.93l-.12,0a8.11,8.11,0,0,1-2-.87s0,0-1-.28c-4.25-1.14-4.25-1.12-4.25-1.13.07,2,.36,5.41.65,7.54l.24,1.37A634.94,634.94,0,0,0,136,84.74Z"/><path class="cls-3" d="M108.63,35.53c-.33-.32-1-4.77-1.59-4.73s-1.12,4.45-1.4,4.74c-.56.58-4.66,1-4.63,1.56s4.07.83,4.64,1.38c.31.31,1,4.77,1.58,4.74s1.11-4.44,1.4-4.74c.54-.56,4.68-1,4.64-1.57S109.17,36.06,108.63,35.53Z"/><path class="cls-3" d="M55.07,35.89c-.33-.32-1-4.77-1.59-4.73s-1.12,4.45-1.4,4.74c-.56.58-4.66,1-4.63,1.56s4.06.83,4.63,1.38c.32.31,1,4.77,1.59,4.74s1.11-4.44,1.4-4.74c.54-.57,4.68-1,4.64-1.57S55.61,36.42,55.07,35.89Z"/><path class="cls-6" d="M75.19,46.87c-.33-.32-1-4.77-1.58-4.74s-1.12,4.45-1.4,4.74c-.56.59-4.67,1-4.63,1.57s4.06.83,4.63,1.38c.32.3,1,4.77,1.58,4.73s1.11-4.43,1.4-4.73c.54-.57,4.68-1,4.65-1.57S75.74,47.4,75.19,46.87Z"/><path class="cls-6" d="M70.48,14c-.33-.32-1-4.77-1.59-4.74S67.77,13.74,67.5,14c-.57.59-4.67,1-4.64,1.57s4.07.83,4.64,1.38c.31.31,1,4.77,1.58,4.73s1.11-4.43,1.4-4.73c.54-.57,4.68-1,4.64-1.57S71,14.56,70.48,14Z"/><path class="cls-6" d="M128.31,53.08c-.32-.32-1-4.77-1.58-4.74s-1.12,4.45-1.4,4.75c-.56.58-4.66,1-4.63,1.56s4.06.83,4.63,1.38c.32.31,1,4.77,1.59,4.73s1.11-4.43,1.4-4.73c.54-.57,4.67-1,4.64-1.57S128.86,53.61,128.31,53.08Z"/><path class="cls-6" d="M23.34,53.28c-.32-.32-1-4.77-1.58-4.73s-1.12,4.45-1.4,4.74c-.56.58-4.66,1-4.63,1.56s4.06.83,4.63,1.38c.32.31,1,4.77,1.59,4.74s1.11-4.44,1.4-4.74c.54-.56,4.67-1,4.64-1.57S23.89,53.81,23.34,53.28Z"/><path class="cls-6" d="M89.93,41.77a1.45,1.45,0,0,0,0,2.89A1.45,1.45,0,0,0,89.93,41.77Z"/><path class="cls-6" d="M61.6,60.28a1.45,1.45,0,0,0,0,2.9A1.45,1.45,0,0,0,61.6,60.28Z"/><path class="cls-6" d="M33.62,35.56a1.45,1.45,0,0,0,0,2.89A1.45,1.45,0,0,0,33.62,35.56Z"/><path class="cls-6" d="M109.08,51.59a1.45,1.45,0,0,0,0,2.89A1.45,1.45,0,0,0,109.08,51.59Z"/><path class="cls-6" d="M87.13,18.94a1.45,1.45,0,0,0,0,2.9A1.45,1.45,0,0,0,87.13,18.94Z"/><path class="cls-5" d="M78.86,118.49c.6,4.33-1.79,7.84-5.35,7.84s-6.93-3.51-7.53-7.84,1.79-7.85,5.35-7.85S78.26,114.16,78.86,118.49Z"/><path class="cls-7" d="M144.39,74.18c.45,3.12-2.13,6-5.72,6.35a637.53,637.53,0,0,1-132.9,0C2.18,80.16-.4,77.3.05,74.18h0c.45-3.12,3.68-5.32,7.17-5a618.05,618.05,0,0,0,130,0c3.49-.36,6.72,1.84,7.17,5Z"/><path class="cls-6" d="M71.56,97.49A21.18,21.18,0,1,1,52.87,74.07,21.17,21.17,0,0,1,71.56,97.49Z"/><path class="cls-3" d="M67.75,97.06A15.67,15.67,0,1,1,53.93,79.74,15.68,15.68,0,0,1,67.75,97.06Z"/><path class="cls-6" d="M65.39,90.08a14.73,14.73,0,0,0-6.3-6.18c-1.25-.6-2,1.4-.8,2A12.29,12.29,0,0,1,63.43,91C64.12,92.13,66.1,91.28,65.39,90.08Z"/><path class="cls-6" d="M55.82,82.23c-.33-.1-.65-.22-1-.33a1.1,1.1,0,0,0-1.4.6,1.09,1.09,0,0,0,.6,1.4l1,.33a1.08,1.08,0,1,0,.8-2Z"/><path class="cls-6" d="M66.54,94a1.08,1.08,0,0,0-1.41-.55,1.1,1.1,0,0,0-.55,1.42v0a1.08,1.08,0,1,0,2.14.24A2.62,2.62,0,0,0,66.54,94Z"/><path class="cls-6" d="M64.57,94.83v0a.09.09,0,0,0,0,0C64.48,94.54,64.55,94.75,64.57,94.83Z"/><path class="cls-6" d="M64.57,94.88c0,.15,0,.08,0,0Z"/><polygon class="cls-6" points="64.58 94.83 64.58 94.83 64.58 94.83 64.58 94.83"/><path class="cls-6" d="M117.64,98.34A21.19,21.19,0,1,1,99,74.92,21.19,21.19,0,0,1,117.64,98.34Z"/><path class="cls-3" d="M110.75,98A15.66,15.66,0,1,1,96.94,80.65,15.65,15.65,0,0,1,110.75,98Z"/><path class="cls-6" d="M108.4,91a14.73,14.73,0,0,0-6.3-6.18c-1.25-.6-2,1.4-.8,2a12.29,12.29,0,0,1,5.14,5.06C107.13,93,109.1,92.18,108.4,91Z"/><path class="cls-6" d="M98.82,83.14c-.32-.11-.64-.23-1-.33a1.08,1.08,0,0,0-.8,2l1,.32a1.1,1.1,0,0,0,1.4-.6A1.07,1.07,0,0,0,98.82,83.14Z"/><path class="cls-6" d="M109.55,94.86a1.08,1.08,0,0,0-1.42-.54,1.1,1.1,0,0,0-.55,1.41,0,0,0,0,0,0,0,1.08,1.08,0,0,0,1,1.18,1.07,1.07,0,0,0,1.18-.95A2.64,2.64,0,0,0,109.55,94.86Z"/><path class="cls-6" d="M107.58,95.73v0C107.49,95.44,107.56,95.66,107.58,95.73Z"/><path class="cls-6" d="M107.58,95.78c0,.16,0,.08,0,0Z"/><polygon class="cls-6" points="107.59 95.74 107.58 95.73 107.58 95.73 107.59 95.74"/><path class="cls-3" d="M43.46,61.78a48.75,48.75,0,0,0-10.3,3.39,3.24,3.24,0,0,0-2.22,3.9c.42,1.53,2.3,2.87,3.91,2.22a49.33,49.33,0,0,1,10.3-3.39C49.18,67.24,47.47,61.12,43.46,61.78Z"/><path class="cls-3" d="M107.72,65.35c-3-2.29-6.93-3-10.5-3.85-4-.94-5.67,5.18-1.69,6.12,3.08.73,6.42,1.24,9,3.21,1.38,1.06,3.55.21,4.34-1.14A3.24,3.24,0,0,0,107.72,65.35Z"/><path class="cls-8" d="M44.22,203.33a3.57,3.57,0,0,0,2.19,2.47,40.83,40.83,0,0,0,27-1.69,3.49,3.49,0,0,0,1.82-2.76c1.32-18.67,2.56-36.64,4.23-52.82A1.39,1.39,0,0,0,77.94,147c-14.59,1.22-29.24,2.16-43.85,3.24A1.44,1.44,0,0,0,32.77,152C36.6,167.94,40.36,185.26,44.22,203.33Z"/><path class="cls-5" d="M52.61,148.86c-6.66.6-13.3,1.47-19.88,2.65a1.72,1.72,0,0,0,0,.5q.94,3.88,1.87,7.88h2.9a259.9,259.9,0,0,0,41.16-3.24q.38-4.12.79-8.12a1.58,1.58,0,0,0-.1-.73c-6,0-12,.1-17.92.43Z"/><path class="cls-9" d="M73.24,117.31c-1-1.63-3-.83-4.49,0-2.51,1.36-5,2.71-7.47,4.18-2.14,1.28-4.5,2.63-5.92,4.67-1.8,2.61-1.2,5.46-.75,8.16.58,3.55,1.38,7,2.2,10.52.33,1.38.59,2.37,2.67,1.78s2.37-2.45,1.84-4.07a42.51,42.51,0,0,1-2.07-8.11c-.27-2.27-.67-5.17,1.82-6.8,3.57-2.32,7.3-4.41,11-6.59l.14,0,0-.15,0,0A2.32,2.32,0,0,0,73.24,117.31Z"/><path class="cls-10" d="M36.08,148.09,35.69,144A2,2,0,0,1,37.23,142a180.78,180.78,0,0,1,35.57-3.42,1.78,1.78,0,0,1,1.75,1.74c0,2,0,4,0,6"/><path class="cls-11" d="M31.82,156.78a1.94,1.94,0,0,1-1.9-1.66c-.13-1.38-.27-2.76-.4-4.14a1.9,1.9,0,0,1,1.55-2,267.82,267.82,0,0,1,49.15-4,1.49,1.49,0,0,1,1.55,1.64q-.26,2.28-.51,4.65a2.45,2.45,0,0,1-1.89,2,269.59,269.59,0,0,1-42.12,3.42l-3.48,0Z"/><path class="cls-12" d="M38.55,143.23a1.55,1.55,0,0,1,.11.19c.06.12.13.3.21.51a6.76,6.76,0,0,1,.33,1.58,6.52,6.52,0,0,1,0,1.61,4.88,4.88,0,0,1-.12.55,1.3,1.3,0,0,1-.06.2.93.93,0,0,1-.11-.19,4,4,0,0,1-.21-.51,6.65,6.65,0,0,1-.33-1.58,6.52,6.52,0,0,1,0-1.61,5.15,5.15,0,0,1,.12-.54A1.26,1.26,0,0,1,38.55,143.23Z"/><path class="cls-12" d="M43.2,142.13l.1.19a4,4,0,0,1,.21.51,6.65,6.65,0,0,1,.33,1.58,6.52,6.52,0,0,1,0,1.61,5,5,0,0,1-.11.54,2,2,0,0,1-.07.21,1.55,1.55,0,0,1-.11-.19c-.06-.12-.13-.3-.21-.51a6.76,6.76,0,0,1-.33-1.58,7,7,0,0,1,0-1.61,5.43,5.43,0,0,1,.12-.55C43.17,142.2,43.2,142.13,43.2,142.13Z"/><path class="cls-12" d="M47.9,141.69l.11.19c.06.12.13.3.21.51a7.31,7.31,0,0,1,.33,1.58,7,7,0,0,1,0,1.61,4.62,4.62,0,0,1-.12.54,2,2,0,0,1-.07.21l-.1-.19a4,4,0,0,1-.21-.51,6.19,6.19,0,0,1-.33-1.58,6.52,6.52,0,0,1,0-1.61c0-.23.08-.41.11-.54A2,2,0,0,1,47.9,141.69Z"/><path class="cls-12" d="M52.54,140.58a1.35,1.35,0,0,1,.11.2c.06.12.13.3.21.51a6.65,6.65,0,0,1,.33,1.58,6.52,6.52,0,0,1,0,1.61A4.62,4.62,0,0,1,53,145a1.83,1.83,0,0,1-.06.21,1.55,1.55,0,0,1-.11-.19,4,4,0,0,1-.21-.51,6.76,6.76,0,0,1-.33-1.58,6.61,6.61,0,0,1,0-1.62,5.15,5.15,0,0,1,.12-.54A1.83,1.83,0,0,1,52.54,140.58Z"/><path class="cls-12" d="M57.26,140.31a1.35,1.35,0,0,1,.11.2,3.46,3.46,0,0,1,.21.51,6.65,6.65,0,0,1,.33,1.58,6.52,6.52,0,0,1,0,1.61,5.15,5.15,0,0,1-.12.54,1.83,1.83,0,0,1-.06.21,1.55,1.55,0,0,1-.11-.19,4,4,0,0,1-.21-.51,6.76,6.76,0,0,1-.33-1.58,6.61,6.61,0,0,1,0-1.62,5.15,5.15,0,0,1,.12-.54A1.83,1.83,0,0,1,57.26,140.31Z"/><path class="cls-12" d="M62,140.37l.1.19a4.73,4.73,0,0,1,.21.51,6.76,6.76,0,0,1,.33,1.58,6.61,6.61,0,0,1,0,1.62,3.44,3.44,0,0,1-.12.54,1.83,1.83,0,0,1-.06.21,1.55,1.55,0,0,1-.11-.19c-.06-.13-.13-.3-.21-.52a6.54,6.54,0,0,1-.33-1.58,7.06,7.06,0,0,1,0-1.61,5.15,5.15,0,0,1,.12-.54C62,140.45,62,140.37,62,140.37Z"/><path class="cls-12" d="M66.72,139.93l.1.19c.06.13.14.3.22.52a7.18,7.18,0,0,1,.33,1.58,7.06,7.06,0,0,1,0,1.61,5.15,5.15,0,0,1-.12.54l-.07.21-.1-.19c-.06-.13-.14-.3-.22-.51a7.31,7.31,0,0,1-.33-1.58,7.11,7.11,0,0,1,0-1.62c0-.22.08-.41.11-.54S66.72,139.93,66.72,139.93Z"/><path class="cls-12" d="M71.52,140.49l.1.19a4,4,0,0,1,.21.51,6.73,6.73,0,0,1,.34,1.58,7.11,7.11,0,0,1,0,1.62,3.6,3.6,0,0,1-.11.54c0,.13-.07.2-.07.2a1.55,1.55,0,0,1-.1-.19,3.84,3.84,0,0,1-.22-.51,7.18,7.18,0,0,1-.33-1.58,7,7,0,0,1,0-1.61,3.6,3.6,0,0,1,.11-.54C71.49,140.57,71.52,140.49,71.52,140.49Z"/><path class="cls-13" d="M53,148.15c-5.53,0-10.94,1.16-16.39,1.91-.92.13-.53,1.52.38,1.39,5.33-.73,10.61-1.81,16-1.85A.73.73,0,0,0,53,148.15Z"/><path class="cls-13" d="M55.92,148a.73.73,0,0,0,0,1.45A.73.73,0,0,0,55.92,148Z"/><path class="cls-6" d="M34.8,17.35A15.28,15.28,0,0,0,21.55,25c-1.38,2.44,2.37,4.62,3.75,2.19a10.84,10.84,0,0,1,9.5-5.48C37.6,21.65,37.6,17.31,34.8,17.35Z"/><path class="cls-6" d="M19.76,30.85c-2.8,0-2.8,4.34,0,4.34S22.56,30.85,19.76,30.85Z"/><path class="cls-6" d="M106.48,13.64a26.38,26.38,0,0,0-13-4.77A2.17,2.17,0,0,0,91.36,11a2.22,2.22,0,0,0,2.17,2.18,22,22,0,0,1,10.76,4.18,2.17,2.17,0,0,0,3-.78A2.21,2.21,0,0,0,106.48,13.64Z"/><path class="cls-6" d="M111.17,19c-2.79,0-2.79,4.34,0,4.34S114,19,111.17,19Z"/><path class="cls-6" d="M131.16,72.61a37,37,0,0,1-7.56.88,1.4,1.4,0,0,0,0,2.8,40.65,40.65,0,0,0,8.3-1C133.67,74.94,132.92,72.24,131.16,72.61Z"/><path class="cls-6" d="M135.54,72a1.4,1.4,0,0,0,0,2.8A1.4,1.4,0,0,0,135.54,72Z"/><path class="cls-6" d="M47.24,195.89c-.5-4.41-1.87-8.62-2.65-13-.33-1.84-3.12-1.06-2.79.77.73,4.08,2.08,8.06,2.55,12.2C44.56,197.72,47.45,197.74,47.24,195.89Z"/><path class="cls-6" d="M41.89,176.94a1.45,1.45,0,0,0,0,2.89A1.45,1.45,0,0,0,41.89,176.94Z"/><path class="cls-6" d="M24.05,139.09c-1.93-7.34-3.82-14.71-5.21-22.18-.34-1.83-3.13-1-2.79.77,1.39,7.47,3.28,14.83,5.21,22.18A1.45,1.45,0,0,0,24.05,139.09Z"/><path class="cls-6" d="M15.28,108.84a1.45,1.45,0,0,0,0,2.89A1.45,1.45,0,0,0,15.28,108.84Z"/></g></g></svg>