<svg xmlns="http://www.w3.org/2000/svg" viewBox="0 0 198.75 210.8"><defs><style>.cls-1,.cls-15{fill:#29aefd;}.cls-1,.cls-10,.cls-11,.cls-13,.cls-14,.cls-16,.cls-2{fill-rule:evenodd;}.cls-2,.cls-4{fill:#074785;}.cls-3{fill:#fd6085;}.cls-10,.cls-5{fill:#f9d555;}.cls-11,.cls-6{fill:#f1854f;}.cls-7{fill:#eb6080;}.cls-8{fill:#edc955;}.cls-9{fill:#074780;}.cls-12,.cls-14{fill:#fff;}.cls-13,.cls-17{fill:#7befe5;}.cls-16{fill:#ffa4ac;}.cls-17{font-size:12px;font-family:SnapITC-Regular, Snap ITC;}.cls-18{letter-spacing:-0.01em;}.cls-19{letter-spacing:-0.01em;}</style></defs><g id="Layer_2" data-name="Layer 2"><g id="OBJECTS"><path class="cls-1" d="M176.27,85.68,189.94,9.46c-1.15-4-4-5.47-8-5.56L47.88,0c-4-.07-7.13,1.78-7,6.65L43.7,78c.17,6,.28,12.2-1.11,18l-28,87.7s54.08,5.7,73.75,7.5c23.11,2.11,91.57,9.15,91.57,9.15l-5-82.12C174.28,107.25,174.16,96.53,176.27,85.68Z"/><path class="cls-2" d="M167.44,86.25a4,4,0,0,1-3.94,3.29Q110,87.6,55.72,85.68a3.68,3.68,0,0,1-3.46-3.53q-1-34.53-1.31-69.07a3.47,3.47,0,0,1,3.8-3.29l123.12,3.87a3,3,0,0,1,3.07,3.53Q173.82,51.72,167.44,86.25Z"/><path class="cls-3" d="M67,115.79a1.45,1.45,0,0,1-1.44,1.11L54,116.21a1,1,0,0,1-.92-1.25L54.4,109a1.47,1.47,0,0,1,1.44-1.11l11.56.69a1,1,0,0,1,.92,1.25Z"/><path class="cls-4" d="M90.09,117a1.45,1.45,0,0,1-1.44,1.11l-11.55-.69a1,1,0,0,1-.93-1.25l1.29-5.91a1.43,1.43,0,0,1,1.43-1.11l11.56.68a1,1,0,0,1,.93,1.25Z"/><path class="cls-3" d="M113.15,118.29a1.45,1.45,0,0,1-1.44,1.11l-11.56-.68a1,1,0,0,1-.92-1.25l1.28-5.92a1.45,1.45,0,0,1,1.44-1.11l11.56.68a1,1,0,0,1,.92,1.26Z"/><path class="cls-5" d="M136.2,119.54a1.46,1.46,0,0,1-1.44,1.12L123.21,120a1,1,0,0,1-.93-1.25l1.29-5.92a1.43,1.43,0,0,1,1.43-1.11l11.56.69a1,1,0,0,1,.93,1.25Z"/><path class="cls-6" d="M159.26,120.8a1.45,1.45,0,0,1-1.44,1.11l-11.56-.69a1,1,0,0,1-.93-1.25l1.29-5.92a1.45,1.45,0,0,1,1.44-1.11l11.56.69a1,1,0,0,1,.92,1.25Z"/><path class="cls-7" d="M64.12,129.9A1.44,1.44,0,0,1,62.68,131l-11.55-.68a1,1,0,0,1-.93-1.25l1.29-5.92a1.44,1.44,0,0,1,1.44-1.11l11.55.69a1,1,0,0,1,.93,1.25Z"/><path class="cls-5" d="M87.18,131.16a1.45,1.45,0,0,1-1.44,1.11l-11.56-.69a1,1,0,0,1-.92-1.25l1.28-5.92A1.45,1.45,0,0,1,76,123.3l11.56.69a1,1,0,0,1,.92,1.25Z"/><path class="cls-4" d="M110.23,132.41a1.43,1.43,0,0,1-1.43,1.11l-11.56-.69a1,1,0,0,1-.93-1.25l1.29-5.92A1.45,1.45,0,0,1,99,124.55l11.55.69a1,1,0,0,1,.93,1.25Z"/><path class="cls-6" d="M133.29,133.66a1.45,1.45,0,0,1-1.44,1.11l-11.56-.69a1,1,0,0,1-.92-1.25l1.28-5.91a1.45,1.45,0,0,1,1.44-1.11l11.56.68a1,1,0,0,1,.92,1.25Z"/><path class="cls-4" d="M156.34,134.91a1.44,1.44,0,0,1-1.43,1.11l-11.56-.68a1,1,0,0,1-.93-1.25l1.29-5.92a1.45,1.45,0,0,1,1.44-1.11l11.55.68a1,1,0,0,1,.93,1.26Z"/><path class="cls-8" d="M61.21,144a1.45,1.45,0,0,1-1.44,1.11l-11.56-.69a1,1,0,0,1-.92-1.25l1.28-5.91A1.45,1.45,0,0,1,50,136.17l11.56.68a1,1,0,0,1,.92,1.25Z"/><path class="cls-9" d="M84.26,145.27a1.43,1.43,0,0,1-1.43,1.11l-11.56-.68a1,1,0,0,1-.93-1.26l1.29-5.91a1.45,1.45,0,0,1,1.44-1.11l11.55.68a1,1,0,0,1,.93,1.26Z"/><path class="cls-6" d="M107.32,146.52a1.45,1.45,0,0,1-1.44,1.11L94.32,147a1,1,0,0,1-.92-1.25l1.28-5.92a1.45,1.45,0,0,1,1.44-1.11l11.56.69a1,1,0,0,1,.92,1.25Z"/><path class="cls-3" d="M130.38,147.78a1.46,1.46,0,0,1-1.44,1.11l-11.56-.69a1,1,0,0,1-.93-1.25l1.29-5.92a1.45,1.45,0,0,1,1.44-1.11l11.55.69a1,1,0,0,1,.93,1.25Z"/><path class="cls-5" d="M116.28,180a4.76,4.76,0,0,1-4.72,3.51l-37.47-2.25a3.12,3.12,0,0,1-2.94-4l4.44-18.74a4.76,4.76,0,0,1,4.72-3.52l37.47,2.25a3.13,3.13,0,0,1,3,4Z"/><path class="cls-5" d="M153.43,149a1.45,1.45,0,0,1-1.44,1.11l-11.56-.69a1,1,0,0,1-.92-1.25l1.28-5.92a1.47,1.47,0,0,1,1.44-1.11l11.56.69a1,1,0,0,1,.92,1.25Z"/><path class="cls-1" d="M93,156.41a44.6,44.6,0,1,1-49.77-38.74A44.6,44.6,0,0,1,93,156.41Z"/><path class="cls-2" d="M5.16,158.58s40.93,48.31,52.94,47.48C75,204.9,68.44,136.13,68.44,136.13L30.78,130,6,158.06"/><path class="cls-10" d="M9.5,157.06S47.89,205,59.92,205.22s12.85-70.61,12.85-70.61l-37.66-6.12-24.77,28"/><path class="cls-11" d="M41.17,136.37a3.43,3.43,0,0,0-1.79.26,59.05,59.05,0,0,0-11.66,5.24,21.53,21.53,0,0,0-6.43,4.83c2.16,6,7.09,9.41,12.77,8.72a11.1,11.1,0,0,0,9.33-9,14.8,14.8,0,0,0,0-5.31,10.67,10.67,0,0,0-.77-2.38c-.2-.42-.43-.83-.66-1.24C41.79,137.32,41.4,136.42,41.17,136.37Z"/><path class="cls-11" d="M62,180a8.32,8.32,0,0,0,.91,9.64,11.22,11.22,0,0,0,3.14,2.44,8.16,8.16,0,0,0,1.34.54A146.36,146.36,0,0,0,70.22,176,8.47,8.47,0,0,0,62,180Z"/><path class="cls-11" d="M44.89,185c-3.42-.83-6.94-.35-8.82,2.22a147.07,147.07,0,0,0,13.63,12.6,6.5,6.5,0,0,0,3.25-7.5A10.85,10.85,0,0,0,44.89,185Z"/><path class="cls-11" d="M72.09,153.32c-6,2.54-11.81-.59-14.29-5.48a13.87,13.87,0,0,1,1.29-14.67,10.82,10.82,0,0,1,12.49-3.65c.48.19,1,.34,1.46.51C72.72,137.8,72.68,145.57,72.09,153.32Z"/><path class="cls-2" d="M.45,149.57s6.25-14.68,35.87-24.84,36.41-1.13,36.41-1.13,5.63,4.49.12,12.6c0,0-8.83-6-30.43,2s-32.35,20.71-32.35,20.71"/><path class="cls-2" d="M7.72,152.18c2.58,3.21,3.23,6.4,1.73,7.6s-4.26.56-6.83-2.65-3.36-6.68-1.86-7.88S5.15,149,7.72,152.18Z"/><path class="cls-12" d="M29.06,131.68a97.66,97.66,0,0,1,22-7.26c1.38-.3.63-2.37-.73-2.07a97.13,97.13,0,0,0-22,7.25c-1.26.62-.54,2.71.73,2.08Z"/><path class="cls-13" d="M169.88,204.81a18.55,18.55,0,0,1-5.42-3.19,3.2,3.2,0,0,1-.74-4.54,3.68,3.68,0,0,1,4.09-1,3.06,3.06,0,0,1,.94.55,13.19,13.19,0,0,0,1.2.93c.22.14.43.28.64.4l.19.11.21.11.09,0c.43.21.87.4,1.3.57s.78.28,1.16.39l.2.05.39.1.52.1c.59.11,1.1.18,1.57.22a12.22,12.22,0,0,0,2.61.05,21.24,21.24,0,0,0,2.6-.32h0l.57-.11.1,0,.26-.06h0c.28-.07.64-.17,1-.29a19.37,19.37,0,0,0,2.36-.93l0,0,.48-.24.08,0,.07,0c.27-.15.62-.36,1-.59a15.64,15.64,0,0,0,1.71-1.33l.12-.13.09-.09h0c.11-.11.24-.25.36-.39s.41-.48.56-.68.37-.52.51-.75l.09-.15.2-.41a7.73,7.73,0,0,0,.35-.84l.14-.42a1.23,1.23,0,0,0,0-.16l0-.11a5.29,5.29,0,0,0,.09-.71v0c0-.14,0-.27,0-.39v0a6.27,6.27,0,0,0-.13-.71v0l-.12-.27-.1-.15-.11-.18-.07-.09-.21-.24-.12-.11a4.72,4.72,0,0,0-.39-.27l-.14-.08-.12-.07-.34-.14-.26-.09-.18,0-.35-.1-.21,0c-.44-.07-.77-.11-1.08-.13l-.36,0h-.32a10.43,10.43,0,0,0-1.05.11l-.17,0a3.21,3.21,0,0,1-.36.07l-.22.07h0l-.42.16-.11.06-.16.08a3.33,3.33,0,0,0-.34.24l-.08.08-.24.32a3.53,3.53,0,0,1-4.17,1,3.4,3.4,0,0,1-1.68-5c2.3-3.34,7.2-4.27,11-3.71a13.64,13.64,0,0,1,3,.78,10,10,0,0,1,6.35,6.51c.86,3.05,0,6.61-2.31,9.76a19.41,19.41,0,0,1-8.83,6.39,25.35,25.35,0,0,1-17.4.18Z"/><path class="cls-2" d="M178.83,199.68a12.22,12.22,0,0,1-2.61-.05c-.47,0-1-.11-1.57-.22l-.52-.1-.39-.1-.2-.05c-.38-.11-.77-.24-1.16-.39s-.87-.36-1.3-.57l-.09,0-.21-.11-.19-.11c-.21-.12-.42-.26-.64-.4a13.19,13.19,0,0,1-1.2-.93,3.06,3.06,0,0,0-.94-.55,3.68,3.68,0,0,0-4.09,1,3.2,3.2,0,0,0,.74,4.54,18.55,18.55,0,0,0,5.42,3.19h0a21.93,21.93,0,0,0,5,1.25,37,37,0,0,0,6.27-6.66A19.93,19.93,0,0,1,178.83,199.68Z"/><path class="cls-2" d="M178.92,189.46a3.24,3.24,0,0,0,.8.43,3.53,3.53,0,0,0,4.17-1l.24-.32.08-.08a3.33,3.33,0,0,1,.34-.24l.16-.08.11-.06.42-.16h0l.22-.07a3.21,3.21,0,0,0,.36-.07l.17,0a10.43,10.43,0,0,1,1.05-.11h.32l.36,0h0a36,36,0,0,0,1.9-6.34l-.58-.1c-3.83-.56-8.73.37-11,3.71A3.23,3.23,0,0,0,178.92,189.46Z"/><path class="cls-1" d="M139.33,150.32c-17.21,11.46-19.25,46.69.43,56.4,19.79,9.43,34.5,1.69,43.47-14.79,5-9,7.74-19.1,2-29.4"/><path class="cls-13" d="M186,180.35c-5,12.58-21.17,18.15-36.07,12.45S127,172.28,132,159.71s21.18-18.15,36.08-12.45S191,167.78,186,180.35Z"/><path class="cls-11" d="M181.41,178.61C177.27,189,164,193.56,151.68,188.86S132.8,172,136.94,161.59s17.45-15,29.73-10.26S185.56,168.24,181.41,178.61Z"/><path class="cls-1" d="M165.35,154.66c11.53,4.41,18.05,15.46,15.37,25.37a15.92,15.92,0,0,0,.85-1.82c4.14-10.36-2.46-22.57-14.74-27.27s-25.59-.11-29.73,10.26a18.44,18.44,0,0,0-.64,1.9C141.36,154,153.81,150.24,165.35,154.66Z"/><path class="cls-14" d="M189.32,200.08c-2.55,1.62-5.14,3.15-8.38,3.33-1.13.06-.81,1.68.32,1.62,3.53-.19,6.4-1.87,9.19-3.64C191.37,200.8,190.24,199.5,189.32,200.08Z"/><path class="cls-14" d="M193.43,199.24a.79.79,0,0,0,.32-.55.89.89,0,0,0-.2-.6,1,1,0,0,0-1.25-.16,2,2,0,0,0-.57.68.84.84,0,0,0,.53,1.07.88.88,0,0,0,1.1-.37v0Z"/><path class="cls-4" d="M44.35,94H45.8c1,0,2.34,0,4.11,0s3.92,0,6.39.06,5.25.08,8.28.15,6.32.13,9.79.25,7.14.19,10.93.34S93,95.12,97,95.3l12.05.54,12.06.62c4,.2,7.88.46,11.67.68s7.44.47,10.91.7l5,.34,4.72.36c3,.22,5.8.44,8.26.65s4.6.39,6.36.55,3.15.29,4.1.38l1.44.14h-1.45c-.95,0-2.34,0-4.11,0s-3.92,0-6.39-.07-5.25-.07-8.28-.14l-4.73-.1-5.07-.15c-3-.08-6.51-.17-10.92-.35-3.79-.14-7.71-.26-11.69-.44l-12-.54-12.06-.62c-4-.21-7.88-.46-11.67-.68s-7.44-.47-10.91-.71-6.75-.47-9.77-.69-5.8-.45-8.26-.65-4.6-.4-6.36-.55-3.15-.3-4.1-.38Z"/><path class="cls-12" d="M46.12,163a12.94,12.94,0,1,1-15.82-9.19A13,13,0,0,1,46.12,163Z"/><path class="cls-4" d="M43.85,163.63a9.57,9.57,0,1,1-11.7-6.79A9.58,9.58,0,0,1,43.85,163.63Z"/><path class="cls-4" d="M45.84,175.44a69.17,69.17,0,0,0,12-3.89s6.46,14.62-1.81,16.81C48.48,190.36,45.84,175.44,45.84,175.44Z"/><path class="cls-3" d="M57,181.37c-3.11,1.21-4.85,3.66-4.85,6.43a4.83,4.83,0,0,0,3.92.56c3.53-.93,4.37-4.12,4.19-7.48A7.17,7.17,0,0,0,57,181.37Z"/><path class="cls-12" d="M41,160.18a9.07,9.07,0,0,0-5-2.12c-.84-.07-.85,1.25,0,1.31a7.43,7.43,0,0,1,4,1.74C40.7,161.63,41.63,160.71,41,160.18Z"/><path class="cls-12" d="M33.78,157.83l-.63,0a.66.66,0,0,0,0,1.32l.63,0a.66.66,0,0,0,0-1.32Z"/><path class="cls-12" d="M42.49,162.14a.65.65,0,0,0-.93,0,.67.67,0,0,0,0,.93v0a.66.66,0,0,0,1.27-.34A1.55,1.55,0,0,0,42.49,162.14Z"/><path class="cls-12" d="M41.55,163.07s0,0,0,0v0C41.44,162.92,41.53,163,41.55,163.07Z"/><path class="cls-12" d="M41.56,163.09c0,.1,0,0,0,0Z"/><polygon class="cls-12" points="41.56 163.07 41.56 163.07 41.56 163.07 41.56 163.07"/><path class="cls-12" d="M72.55,153.32a12.95,12.95,0,1,1-15.83-9.2A12.95,12.95,0,0,1,72.55,153.32Z"/><path class="cls-4" d="M68.54,154.63a9.57,9.57,0,1,1-11.7-6.8A9.56,9.56,0,0,1,68.54,154.63Z"/><path class="cls-12" d="M65.66,151.18a9,9,0,0,0-5-2.13c-.85-.06-.85,1.25,0,1.32a7.43,7.43,0,0,1,4,1.74C65.39,152.63,66.32,151.7,65.66,151.18Z"/><path class="cls-12" d="M58.47,148.83l-.63,0a.66.66,0,1,0,0,1.31l.63,0a.66.66,0,0,0,0-1.31Z"/><path class="cls-12" d="M67.17,153.13a.66.66,0,0,0-.92,0,.67.67,0,0,0,0,.93v0a.66.66,0,1,0,1.27-.34A1.84,1.84,0,0,0,67.17,153.13Z"/><path class="cls-12" d="M66.24,154.06l0,0a0,0,0,0,1,0,0C66.13,153.92,66.21,154,66.24,154.06Z"/><path class="cls-12" d="M66.26,154.09c0,.09,0,0,0,0Z"/><polygon class="cls-12" points="66.25 154.06 66.25 154.06 66.25 154.06 66.25 154.06"/><path class="cls-12" d="M163.09,43.19c-.36-.35-1.07-5.16-1.72-5.13s-1.21,4.82-1.51,5.14c-.61.63-5.05,1.07-5,1.69s4.4.89,5,1.49c.35.33,1.07,5.16,1.72,5.13s1.2-4.8,1.51-5.13c.59-.61,5.06-1.08,5-1.7S163.68,43.76,163.09,43.19Z"/><path class="cls-12" d="M64.67,71.61c-.35-.35-1.07-5.17-1.71-5.13s-1.21,4.82-1.52,5.13c-.6.64-5,1.08-5,1.69s4.4.9,5,1.5c.34.33,1.06,5.16,1.71,5.13s1.2-4.81,1.52-5.13c.58-.61,5.06-1.08,5-1.7S65.27,72.18,64.67,71.61Z"/><path class="cls-15" d="M64.22,21.78c-.36-.34-1.07-5.16-1.71-5.12S61.29,21.48,61,21.79c-.61.63-5.05,1.08-5,1.69s4.4.9,5,1.5c.35.33,1.07,5.16,1.72,5.12s1.2-4.8,1.51-5.12c.59-.61,5.06-1.08,5-1.7S64.81,22.36,64.22,21.78Z"/><path class="cls-15" d="M158.72,73.73c-.35-.35-1.06-5.16-1.71-5.12s-1.21,4.81-1.51,5.13c-.61.63-5.05,1.07-5,1.69s4.4.9,5,1.49c.34.34,1.07,5.17,1.71,5.13s1.2-4.8,1.52-5.13c.58-.61,5.06-1.08,5-1.69S159.32,74.3,158.72,73.73Z"/><path class="cls-15" d="M70,48.07c-.36-.35-1.07-5.16-1.72-5.12S67,47.76,66.73,48.08c-.61.63-5.05,1.07-5,1.69s4.39.9,5,1.49c.34.34,1.07,5.17,1.71,5.13s1.2-4.8,1.52-5.13c.58-.61,5.06-1.08,5-1.69S70.55,48.64,70,48.07Z"/><path class="cls-12" d="M55.49,121.26a1.4,1.4,0,0,0,0,2.79A1.4,1.4,0,0,0,55.49,121.26Z"/><path class="cls-12" d="M24.82,131.51a1.4,1.4,0,0,0,0,2.8A1.4,1.4,0,0,0,24.82,131.51Z"/><path class="cls-12" d="M156.51,15.81l-13.7-.43a1.4,1.4,0,0,0-.09,2.79l13.7.43A1.4,1.4,0,0,0,156.51,15.81Z"/><path class="cls-12" d="M161.52,16.38a1.4,1.4,0,0,0-.08,2.8A1.4,1.4,0,0,0,161.52,16.38Z"/><path class="cls-12" d="M136.8,15.05a1.4,1.4,0,0,0-.08,2.8A1.4,1.4,0,0,0,136.8,15.05Z"/><path class="cls-12" d="M48.87,68c-.56-5-.74-9.94-.94-14.92-.06-1.79-2.86-1.8-2.79,0,.19,5,.37,10,.93,14.92C46.27,69.8,49.07,69.82,48.87,68Z"/><path class="cls-12" d="M46.16,46.12a1.4,1.4,0,0,0,0,2.8A1.4,1.4,0,0,0,46.16,46.12Z"/><path class="cls-12" d="M168.45,117.8l1.66,21.47a1.4,1.4,0,0,0,2.79-.22l-1.66-21.47A1.4,1.4,0,0,0,168.45,117.8Z"/><path class="cls-12" d="M169.32,111.09a1.4,1.4,0,0,0,0,2.8A1.4,1.4,0,0,0,169.32,111.09Z"/><path class="cls-14" d="M143.26,202.37a31,31,0,0,1-7.14-4.72,21.62,21.62,0,0,1-4.71-7.69c-.66-1.64-3.37-.92-2.69.75a26.63,26.63,0,0,0,5,8.49,30.21,30.21,0,0,0,8.14,5.58C143.44,205.63,144.86,203.21,143.26,202.37Z"/><path class="cls-14" d="M147.22,204.23a1.4,1.4,0,0,0,0,2.79A1.4,1.4,0,0,0,147.22,204.23Z"/><path class="cls-14" d="M129.32,183.9a1.4,1.4,0,0,0,0,2.8A1.4,1.4,0,0,0,129.32,183.9Z"/><path class="cls-16" d="M173.61,172.57c-1.05-7.5-10-14.53-18.16-14-1,.06-.68,1.47.31,1.41,7.51-.45,15.18,6.11,16.33,12.8.93,5.38-3.57,9.25-8.89,10.14-5.79,1-12.06-1.72-14.86-6.83-3-5.53,3-11.94,9.28-9.87a5.44,5.44,0,0,1,3.9,4.61c.06,2.23-2.11,1.92-3.73.94-.86-.52-1.74.59-.87,1.11,1.59,1,3.81,1.78,5.24.43,1.25-1.17,1-3.05.39-4.56-2.13-4.93-9.14-5.31-12.89-2.7a8.73,8.73,0,0,0-3.59,6.17c-.3,2.62,1,5.11,2.88,7.2,3.56,4,9.37,5.67,14.56,4.91C169.84,183.37,174.47,178.69,173.61,172.57Z"/><path class="cls-14" d="M186.09,170.07a1.08,1.08,0,0,0-2.09.57,10.35,10.35,0,0,1-1.19,8.4,1.08,1.08,0,0,0,1.87,1.09A12.57,12.57,0,0,0,186.09,170.07Z"/><path class="cls-14" d="M150.34,146.93c-5,.68-9.46,2.62-12,6.63-.73,1.15,1.24,2.16,2,1,2.29-3.57,6.29-5.09,10.68-5.69C152.4,148.69,151.77,146.74,150.34,146.93Z"/><path class="cls-12" d="M82.45,17.36a1.4,1.4,0,0,0,0,2.8A1.4,1.4,0,0,0,82.45,17.36Z"/><path class="cls-12" d="M83.77,78.53a1.4,1.4,0,0,0,0,2.79A1.4,1.4,0,0,0,83.77,78.53Z"/><path class="cls-12" d="M122.25,80.65a1.4,1.4,0,0,0,0,2.8A1.4,1.4,0,0,0,122.25,80.65Z"/><path class="cls-12" d="M168.12,25.17a1.4,1.4,0,0,0,0,2.79A1.4,1.4,0,0,0,168.12,25.17Z"/><path class="cls-12" d="M122.25,18.76a1.4,1.4,0,0,0,0,2.8A1.4,1.4,0,0,0,122.25,18.76Z"/><path class="cls-13" d="M88.06,148c-.53-1.71-3.23-1-2.69.75,3,9.79,3,21.92-2.66,30.8-1,1.53,1.45,2.93,2.42,1.42C91.13,171.47,91.3,158.47,88.06,148Z"/><path class="cls-13" d="M80.14,183.33a1.4,1.4,0,0,0,0,2.79A1.4,1.4,0,0,0,80.14,183.33Z"/><text class="cls-17" transform="translate(92.36 48.92)">M<tspan class="cls-18" x="13.19" y="0">o</tspan><tspan x="20.25" y="0">vie</tspan><tspan class="cls-19" x="-21.96" y="14.4">r</tspan><tspan x="-15.01" y="14.4">ecommender</tspan></text></g></g></svg>