<svg width="115" height="111" viewBox="0 0 115 111" fill="none" xmlns="http://www.w3.org/2000/svg">
<path d="M7.56 110.8C3.38473 110.8 0 107.415 0 103.24V26.3708C0 17.3294 7.32945 10 16.3708 10V10C23.9195 10 30.4895 15.1615 32.2763 22.4957L50.9913 99.3127C51.1514 99.9697 51.7399 100.432 52.416 100.432V100.432C53.0921 100.432 53.6806 99.9697 53.8407 99.3127L72.5557 22.4957C74.3425 15.1616 80.9125 10 88.4612 10V10C97.5026 10 104.832 17.3295 104.832 26.3708V103.24C104.832 107.415 101.447 110.8 97.272 110.8V110.8C93.0967 110.8 89.712 107.415 89.712 103.24V22.2343C89.712 21.5217 89.1343 20.944 88.4217 20.944V20.944C87.8267 20.944 87.3089 21.3508 87.1681 21.9289L68.6213 98.0683C66.8011 105.541 60.1071 110.8 52.416 110.8V110.8C44.7249 110.8 38.0309 105.541 36.2107 98.0683L17.6639 21.9289C17.5231 21.3508 17.0053 20.944 16.4103 20.944V20.944C15.6977 20.944 15.12 21.5217 15.12 22.2343V103.24C15.12 107.415 11.7353 110.8 7.56 110.8V110.8Z" fill="url(#paint0_linear_38_65)"/>
<path d="M12.56 105.8C8.38473 105.8 5 102.415 5 98.24V21.3708C5 12.3294 12.3295 5 21.3708 5V5C28.9195 5 35.4895 10.1615 37.2763 17.4957L55.9913 94.3127C56.1514 94.9697 56.7399 95.432 57.416 95.432V95.432C58.0921 95.432 58.6806 94.9697 58.8407 94.3127L77.5557 17.4957C79.3425 10.1616 85.9125 5 93.4612 5V5C102.503 5 109.832 12.3295 109.832 21.3708V98.24C109.832 102.415 106.447 105.8 102.272 105.8V105.8C98.0967 105.8 94.712 102.415 94.712 98.24V17.2343C94.712 16.5217 94.1343 15.944 93.4217 15.944V15.944C92.8267 15.944 92.3089 16.3508 92.1681 16.9289L73.6213 93.0683C71.8011 100.541 65.1071 105.8 57.416 105.8V105.8C49.7249 105.8 43.0309 100.541 41.2107 93.0683L22.6639 16.9289C22.5231 16.3508 22.0053 15.944 21.4103 15.944V15.944C20.6977 15.944 20.12 16.5217 20.12 17.2343V98.24C20.12 102.415 16.7353 105.8 12.56 105.8V105.8Z" fill="url(#paint1_linear_38_65)"/>
<path d="M17.56 100.8C13.3847 100.8 10 97.4153 10 93.24V16.3708C10 7.32944 17.3295 0 26.3708 0V0C33.9195 0 40.4895 5.16155 42.2763 12.4957L60.9913 89.3127C61.1514 89.9697 61.7399 90.432 62.416 90.432V90.432C63.0921 90.432 63.6806 89.9697 63.8407 89.3127L82.5557 12.4957C84.3425 5.16155 90.9125 0 98.4612 0V0C107.503 0 114.832 7.32945 114.832 16.3708V93.24C114.832 97.4153 111.447 100.8 107.272 100.8V100.8C103.097 100.8 99.712 97.4153 99.712 93.24V12.2343C99.712 11.5217 99.1343 10.944 98.4217 10.944V10.944C97.8267 10.944 97.3089 11.3508 97.1681 11.9289L78.6213 88.0683C76.8011 95.5409 70.1071 100.8 62.416 100.8V100.8C54.7249 100.8 48.0309 95.5409 46.2107 88.0683L27.6639 11.9289C27.5231 11.3508 27.0053 10.944 26.4103 10.944V10.944C25.6977 10.944 25.12 11.5217 25.12 12.2343V93.24C25.12 97.4153 21.7353 100.8 17.56 100.8V100.8Z" fill="url(#paint2_linear_38_65)"/>
<defs>
<linearGradient id="paint0_linear_38_65" x1="95.3998" y1="9.54513" x2="0.799015" y2="108.127" gradientUnits="userSpaceOnUse">
<stop stop-color="#3B4EBA"/>
<stop offset="1" stop-color="white"/>
</linearGradient>
<linearGradient id="paint1_linear_38_65" x1="100.4" y1="4.54513" x2="5.79901" y2="103.127" gradientUnits="userSpaceOnUse">
<stop stop-color="#3B4EBA"/>
<stop offset="1" stop-color="white"/>
</linearGradient>
<linearGradient id="paint2_linear_38_65" x1="105.4" y1="-0.454869" x2="10.799" y2="98.1266" gradientUnits="userSpaceOnUse">
<stop stop-color="#3B4EBA"/>
<stop offset="1" stop-color="white"/>
</linearGradient>
</defs>
</svg>
